<mxfile modified="2021-03-10T18:17:40.056Z" host="app.diagrams.net" agent="5.0 (Macintosh; Intel Mac OS X 10_15_6) AppleWebKit/537.36 (KHTML, like Gecko) Chrome/88.0.4324.96 Safari/537.36" etag="3aukKMryfuQUCCfrcSbc" version="14.3.1" type="github">
  <diagram id="7gcUSTIZ7YSJ5vT40chW" name="Page-1">
    <mxGraphModel dx="1351" dy="730" grid="1" gridSize="10" guides="1" tooltips="1" connect="1" arrows="1" fold="1" page="1" pageScale="1" pageWidth="1169" pageHeight="827" math="0" shadow="0">
      <root>
        <mxCell id="0" />
        <mxCell id="1" parent="0" />
        <mxCell id="_n596mMIc1q4cGWHqEME-7" value="" style="whiteSpace=wrap;html=1;shadow=0;rotation=90;strokeColor=none;fillColor=#BEE4F0;" vertex="1" parent="1">
          <mxGeometry x="302" y="258.53" width="602" height="520" as="geometry" />
        </mxCell>
        <mxCell id="_n596mMIc1q4cGWHqEME-35" value="" style="edgeStyle=orthogonalEdgeStyle;rounded=0;orthogonalLoop=1;jettySize=auto;html=1;startArrow=none;startFill=0;endArrow=classic;endFill=1;" edge="1" parent="1" source="_n596mMIc1q4cGWHqEME-1">
          <mxGeometry relative="1" as="geometry">
            <mxPoint x="520" y="385" as="targetPoint" />
          </mxGeometry>
        </mxCell>
        <mxCell id="_n596mMIc1q4cGWHqEME-41" value="" style="edgeStyle=orthogonalEdgeStyle;orthogonalLoop=1;jettySize=auto;html=1;startArrow=classic;startFill=1;endArrow=classic;endFill=1;curved=1;dashed=1;dashPattern=1 1;" edge="1" parent="1" source="_n596mMIc1q4cGWHqEME-1">
          <mxGeometry relative="1" as="geometry">
            <mxPoint x="430" y="501" as="targetPoint" />
            <Array as="points">
              <mxPoint x="430" y="400" />
            </Array>
          </mxGeometry>
        </mxCell>
        <mxCell id="_n596mMIc1q4cGWHqEME-1" value="" style="shape=image;verticalLabelPosition=bottom;labelBackgroundColor=#ffffff;verticalAlign=top;aspect=fixed;imageAspect=0;image=data:image/svg+xml,PHN2ZyB4bWxuczpjYz0iaHR0cDovL2NyZWF0aXZlY29tbW9ucy5vcmcvbnMjIiB4bWxuczpkYz0iaHR0cDovL3B1cmwub3JnL2RjL2VsZW1lbnRzLzEuMS8iIHhtbG5zOmlua3NjYXBlPSJodHRwOi8vd3d3Lmlua3NjYXBlLm9yZy9uYW1lc3BhY2VzL2lua3NjYXBlIiB4bWxuczpyZGY9Imh0dHA6Ly93d3cudzMub3JnLzE5OTkvMDIvMjItcmRmLXN5bnRheC1ucyMiIHhtbG5zOnNvZGlwb2RpPSJodHRwOi8vc29kaXBvZGkuc291cmNlZm9yZ2UubmV0L0RURC9zb2RpcG9kaS0wLmR0ZCIgeG1sbnM6c3ZnPSJodHRwOi8vd3d3LnczLm9yZy8yMDAwL3N2ZyIgeG1sbnM9Imh0dHA6Ly93d3cudzMub3JnLzIwMDAvc3ZnIiB4bWxuczp4bGluaz0iaHR0cDovL3d3dy53My5vcmcvMTk5OS94bGluayIgdmVyc2lvbj0iMS4xIiBpZD0ic3ZnMzI3NDkiIGlua3NjYXBlOnZlcnNpb249IjAuOTIuMyAoMjQwNTU0NiwgMjAxOC0wMy0xMSkiIHNvZGlwb2RpOmRvY25hbWU9InNtYXJ0cGhvbmVfMS5zdmciIHg9IjBweCIgeT0iMHB4IiB2aWV3Qm94PSIwIDAgMjguMzIgNTYuNjQiIHN0eWxlPSJlbmFibGUtYmFja2dyb3VuZDpuZXcgMCAwIDI4LjMyIDU2LjY0OyIgeG1sOnNwYWNlPSJwcmVzZXJ2ZSI+JiN4YTs8c29kaXBvZGk6bmFtZWR2aWV3IGJvcmRlcmNvbG9yPSIjNjY2NjY2IiBib3JkZXJvcGFjaXR5PSIxIiBmaXQtbWFyZ2luLWJvdHRvbT0iMCIgZml0LW1hcmdpbi1sZWZ0PSIwIiBmaXQtbWFyZ2luLXJpZ2h0PSIwIiBmaXQtbWFyZ2luLXRvcD0iMCIgZ3JpZHRvbGVyYW5jZT0iMTAiIGd1aWRldG9sZXJhbmNlPSIxMCIgaWQ9Im5hbWVkdmlldzMyNzUxIiBpbmtzY2FwZTpjdXJyZW50LWxheWVyPSJzdmczMjc0OSIgaW5rc2NhcGU6Y3g9IjE4Ljg3OTg3OCIgaW5rc2NhcGU6Y3k9IjM3Ljc2MDIxMyIgaW5rc2NhcGU6cGFnZW9wYWNpdHk9IjAiIGlua3NjYXBlOnBhZ2VzaGFkb3c9IjIiIGlua3NjYXBlOndpbmRvdy1oZWlnaHQ9IjEwMTciIGlua3NjYXBlOndpbmRvdy1tYXhpbWl6ZWQ9IjEiIGlua3NjYXBlOndpbmRvdy13aWR0aD0iMTkyMCIgaW5rc2NhcGU6d2luZG93LXg9Ii04IiBpbmtzY2FwZTp3aW5kb3cteT0iLTgiIGlua3NjYXBlOnpvb209IjExLjE4NDI2NiIgb2JqZWN0dG9sZXJhbmNlPSIxMCIgcGFnZWNvbG9yPSIjZmZmZmZmIiBzaG93Z3JpZD0iZmFsc2UiPiYjeGE7CTwvc29kaXBvZGk6bmFtZWR2aWV3PiYjeGE7PGcgaWQ9ImczMjc0NyIgdHJhbnNmb3JtPSJ0cmFuc2xhdGUoLTAuNzQ5OTk1ODgsLTAuNzQ5OTk2MjcpIj4mI3hhOwk8dGl0bGUgaWQ9InRpdGxlMzI2NjciPlBhZ2UtMTwvdGl0bGU+JiN4YTsJPGcgaWQ9Imdyb3VwMzM5My0xIiB0cmFuc2Zvcm09InRyYW5zbGF0ZSgwLjc1LC0wLjc1KSI+JiN4YTsJCTx0aXRsZSBpZD0idGl0bGUzMjY2OSI+U21hcnRwaG9uZSAjMTwvdGl0bGU+JiN4YTsJCTxnIGlkPSJzaGFwZTMzOTQtMiI+JiN4YTsJCQk8dGl0bGUgaWQ9InRpdGxlMzI2NzEiPnBhdGgyNTk5MjwvdGl0bGU+JiN4YTsJCQk8cGF0aCBpZD0icGF0aDMyNjczIiBpbmtzY2FwZTpjb25uZWN0b3ItY3VydmF0dXJlPSIwIiBzdHlsZT0iZmlsbDojMkUyRTJFOyIgZD0iTTI2LjY2LDU4LjE0aC0yNUMwLjc1LDU4LjE0LDAsNTcuNCwwLDU2LjQ5ICAgICBjMCwwLDAsMCwwLTAuMDFWMy4xNkMwLDIuMjUsMC43NCwxLjUsMS42NSwxLjVjMCwwLDAsMCwwLjAxLDBoMjVjMC45MSwwLDEuNjYsMC43NCwxLjY2LDEuNjVjMCwwLDAsMCwwLDAuMDF2NTMuMzIgICAgIEMyOC4zMiw1Ny4zOSwyNy41OCw1OC4xNCwyNi42Niw1OC4xNEMyNi42Niw1OC4xNCwyNi42Niw1OC4xNCwyNi42Niw1OC4xNHoiLz4mI3hhOwkJPC9nPiYjeGE7CQk8ZyBpZD0ic2hhcGUzMzk1LTQiPiYjeGE7CQkJPHRpdGxlIGlkPSJ0aXRsZTMyNjc2Ij5wYXRoMjU5OTQ8L3RpdGxlPiYjeGE7CQkJPHBhdGggaWQ9InBhdGgzMjY3OCIgaW5rc2NhcGU6Y29ubmVjdG9yLWN1cnZhdHVyZT0iMCIgc3R5bGU9ImZpbGw6IzJFMkUyRTsiIGQ9Ik0wLDUwLjV2Ni4yOGMwLDAuNzUsMC42LDEuMzYsMS4zNSwxLjM2ICAgICBjMCwwLDAsMCwwLjAxLDBoMjUuNmMwLjc1LDAsMS4zNi0wLjYsMS4zNi0xLjM1YzAsMCwwLDAsMC0wLjAxVjUwLjVIMHoiLz4mI3hhOwkJPC9nPiYjeGE7CQk8ZyBpZD0ic2hhcGUzMzk2LTYiIHRyYW5zZm9ybT0idHJhbnNsYXRlKDEuNzk4MDksLTcuNjQxODYpIj4mI3hhOwkJCTx0aXRsZSBpZD0idGl0bGUzMjY4MSI+cGF0aDI1OTk2PC90aXRsZT4mI3hhOwkJCTxyZWN0IGlkPSJyZWN0MzI2ODMiIHg9IjAiIHk9IjE2Ljc4IiBzdHlsZT0iZmlsbDojMTA2RUJFOyIgd2lkdGg9IjI0LjI3IiBoZWlnaHQ9IjQxLjM2Ii8+JiN4YTsJCTwvZz4mI3hhOwkJPGcgaWQ9InNoYXBlMzM5Ny04IiB0cmFuc2Zvcm09InRyYW5zbGF0ZSg0LjUyNTMzLC0zLjc3NzMzKSI+JiN4YTsJCQk8dGl0bGUgaWQ9InRpdGxlMzI2ODYiPmNpcmNsZTI1OTk4PC90aXRsZT4mI3hhOwkJCTxjaXJjbGUgaWQ9ImVsbGlwc2UzMjY4OCIgc3R5bGU9ImZpbGw6I0FDQUNBQzsiIGN4PSIwLjc4IiBjeT0iNTcuMzYiIHI9IjAuNzgiLz4mI3hhOwkJPC9nPiYjeGE7CQk8ZyBpZD0ic2hhcGUzMzk4LTEwIiB0cmFuc2Zvcm09InRyYW5zbGF0ZSgyMS43MzcxLC0zLjc3NzMzKSI+JiN4YTsJCQk8dGl0bGUgaWQ9InRpdGxlMzI2OTEiPmNpcmNsZTI2MDAwPC90aXRsZT4mI3hhOwkJCTxjaXJjbGUgaWQ9ImVsbGlwc2UzMjY5MyIgc3R5bGU9ImZpbGw6I0FDQUNBQzsiIGN4PSIwLjc4IiBjeT0iNTcuMzYiIHI9IjAuNzgiLz4mI3hhOwkJPC9nPiYjeGE7CQk8ZyBpZD0ic2hhcGUzMzk5LTEyIiB0cmFuc2Zvcm09InRyYW5zbGF0ZSgxMy4wMzYxLC0zLjgwMzQpIj4mI3hhOwkJCTx0aXRsZSBpZD0idGl0bGUzMjY5NiI+cGF0aDI2MDAyPC90aXRsZT4mI3hhOwkJCTxwYXRoIGlkPSJwYXRoMzI2OTgiIGlua3NjYXBlOmNvbm5lY3Rvci1jdXJ2YXR1cmU9IjAiIHN0eWxlPSJmaWxsOiNBQ0FDQUM7IiBkPSJNMS4zNSw1OC4xNEwwLDU3Ljk1di0xLjI0bDEuMzUtMC4xNVY1OC4xNHoiLz4mI3hhOwkJPC9nPiYjeGE7CQk8ZyBpZD0ic2hhcGUzNDAwLTE0IiB0cmFuc2Zvcm09InRyYW5zbGF0ZSg0LjM0MDEzLC0yOS4xMDAyKSI+JiN4YTsJCQk8dGl0bGUgaWQ9InRpdGxlMzI3MDEiPnBhdGgyNjAwNDwvdGl0bGU+JiN4YTsJCQk8cGF0aCBpZD0icGF0aDMyNzAzIiBpbmtzY2FwZTpjb25uZWN0b3ItY3VydmF0dXJlPSIwIiBzdHlsZT0iZmlsbDojMjQ4OEQ4OyIgZD0iTTIxLjczLDU4LjE0di0xOS45SDBMMjEuNzMsNTguMTR6Ii8+JiN4YTsJCTwvZz4mI3hhOwkJPGcgaWQ9InNoYXBlMzQwMS0xNiIgdHJhbnNmb3JtPSJ0cmFuc2xhdGUoMTAuMjc5NywtNTMuMDM1KSI+JiN4YTsJCQk8dGl0bGUgaWQ9InRpdGxlMzI3MDYiPnBhdGgyNjAwNjwvdGl0bGU+JiN4YTsJCQkmI3hhOwkJCQk8cGF0aCBpZD0icGF0aDMyNzA4IiBpbmtzY2FwZTpjb25uZWN0b3ItY3VydmF0dXJlPSIwIiBzdHlsZT0iZmlsbDpub25lO3N0cm9rZTojNzU3NTc1O3N0cm9rZS13aWR0aDowLjQ3MjU7c3Ryb2tlLW1pdGVybGltaXQ6MzsiIGQ9IiAgICAgTTcuNjksNTcuOTFIMC43N0MwLjM0LDU4LjE0LDAsNTcuOCwwLDU3LjM3YzAuMDEtMC40MywwLjM0LTAuNzgsMC43Ny0wLjgxbDYuOTIsMGMwLjQzLDAuMDQsMC43NiwwLjM5LDAuNzcsMC44MSAgICAgQzguNDYsNTcuOCw4LjEyLDU4LjE0LDcuNjksNTcuOTF6Ii8+JiN4YTsJCTwvZz4mI3hhOwkJPGcgaWQ9InNoYXBlMzQwMi0xOCIgdHJhbnNmb3JtPSJ0cmFuc2xhdGUoMy4xNDY2NSwtMTcuMDgxOCkiPiYjeGE7CQkJPHRpdGxlIGlkPSJ0aXRsZTMyNzExIj5wYXRoMjYwMDg8L3RpdGxlPiYjeGE7CQkJPHBhdGggaWQ9InBhdGgzMjcxMyIgaW5rc2NhcGU6Y29ubmVjdG9yLWN1cnZhdHVyZT0iMCIgc3R5bGU9ImZpbGw6I0ZGRkZGRjsiIGQ9Ik0wLDQ3LjhoMjIuMDN2NC41SDBWNDcuOHogTTAsNTMuNjRoMjIuMDN2NC41SDAgICAgIFY1My42NHoiLz4mI3hhOwkJPC9nPiYjeGE7CQk8ZyBpZD0ic2hhcGUzNDAzLTIwIiB0cmFuc2Zvcm09InRyYW5zbGF0ZSgzLjE0NjY1LC0xMC43ODg1KSI+JiN4YTsJCQk8dGl0bGUgaWQ9InRpdGxlMzI3MTYiPnBhdGgyNjAxMDwvdGl0bGU+JiN4YTsJCQk8cmVjdCBpZD0icmVjdDMyNzE4IiB4PSIwIiB5PSI1My4xOSIgc3R5bGU9ImZpbGw6IzAwQjI5NDsiIHdpZHRoPSIyMi4wMyIgaGVpZ2h0PSI0Ljk0Ii8+JiN4YTsJCTwvZz4mI3hhOwkJPGcgaWQ9InNoYXBlMzQwNC0yMiIgdHJhbnNmb3JtPSJ0cmFuc2xhdGUoNC4yMTI5MSwtMzEuNjU0OCkiPiYjeGE7CQkJPHRpdGxlIGlkPSJ0aXRsZTMyNzIxIj5jaXJjbGUyNjAxMjwvdGl0bGU+JiN4YTsJCQk8Y2lyY2xlIGlkPSJlbGxpcHNlMzI3MjMiIHN0eWxlPSJmaWxsOiMwMEIyOTQ7IiBjeD0iMS4yNiIgY3k9IjU2Ljg4IiByPSIxLjI2Ii8+JiN4YTsJCTwvZz4mI3hhOwkJPGcgaWQ9InNoYXBlMzQwNS0yNCIgdHJhbnNmb3JtPSJ0cmFuc2xhdGUoMTMuMDcwNywtMzEuNjU0OCkiPiYjeGE7CQkJPHRpdGxlIGlkPSJ0aXRsZTMyNzI2Ij5jaXJjbGUyNjAxNDwvdGl0bGU+JiN4YTsJCQk8Y2lyY2xlIGlkPSJlbGxpcHNlMzI3MjgiIHN0eWxlPSJmaWxsOiNBNkE2QTY7IiBjeD0iMS4yNiIgY3k9IjU2Ljg4IiByPSIxLjI2Ii8+JiN4YTsJCTwvZz4mI3hhOwkJPGcgaWQ9InNoYXBlMzQwNi0yNiIgdHJhbnNmb3JtPSJ0cmFuc2xhdGUoNS44NDM3OCwtNDAuMDA3NCkiPiYjeGE7CQkJPHRpdGxlIGlkPSJ0aXRsZTMyNzMxIj5wYXRoMjYwMTY8L3RpdGxlPiYjeGE7CQkJPHJlY3QgaWQ9InJlY3QzMjczMyIgeD0iMCIgeT0iNTcuMjQiIHN0eWxlPSJmaWxsOiM2OUFGRTU7IiB3aWR0aD0iMTYuNjMiIGhlaWdodD0iMC45Ii8+JiN4YTsJCTwvZz4mI3hhOwkJPGcgaWQ9InNoYXBlMzQwNy0yOCIgdHJhbnNmb3JtPSJ0cmFuc2xhdGUoMjEuNTU5NSwtMzEuNjU0OCkiPiYjeGE7CQkJPHRpdGxlIGlkPSJ0aXRsZTMyNzM2Ij5jaXJjbGUyNjAxODwvdGl0bGU+JiN4YTsJCQk8Y2lyY2xlIGlkPSJlbGxpcHNlMzI3MzgiIHN0eWxlPSJmaWxsOiNBNkE2QTY7IiBjeD0iMS4yNiIgY3k9IjU2Ljg4IiByPSIxLjI2Ii8+JiN4YTsJCTwvZz4mI3hhOwkJPGcgaWQ9InNoYXBlMzQwOC0zMCIgdHJhbnNmb3JtPSJ0cmFuc2xhdGUoMS43OTgwOSwtNDIuNzA0NSkiPiYjeGE7CQkJPHRpdGxlIGlkPSJ0aXRsZTMyNzQxIj5wYXRoMjYwMjA8L3RpdGxlPiYjeGE7CQkJPHJlY3QgaWQ9InJlY3QzMjc0MyIgeD0iMCIgeT0iNTEuODUiIHN0eWxlPSJmaWxsOiNGRkE5NDA7IiB3aWR0aD0iMjQuMjciIGhlaWdodD0iNi4yOSIvPiYjeGE7CQk8L2c+JiN4YTsJPC9nPiYjeGE7PC9nPiYjeGE7PC9zdmc+;fontSize=13;" vertex="1" parent="1">
          <mxGeometry x="210" y="335.29" width="48" height="97.71" as="geometry" />
        </mxCell>
        <mxCell id="_n596mMIc1q4cGWHqEME-45" value="" style="edgeStyle=orthogonalEdgeStyle;orthogonalLoop=1;jettySize=auto;html=1;startArrow=classic;startFill=1;endArrow=classic;endFill=1;strokeColor=#000000;entryX=0;entryY=0.25;entryDx=0;entryDy=0;rounded=0;dashed=1;dashPattern=1 1;" edge="1" parent="1" source="_n596mMIc1q4cGWHqEME-3" target="_n596mMIc1q4cGWHqEME-8">
          <mxGeometry relative="1" as="geometry" />
        </mxCell>
        <mxCell id="_n596mMIc1q4cGWHqEME-3" value="" style="shape=image;verticalLabelPosition=bottom;labelBackgroundColor=#ffffff;verticalAlign=top;aspect=fixed;imageAspect=0;image=data:image/svg+xml,PHN2ZyB4bWxuczpjYz0iaHR0cDovL2NyZWF0aXZlY29tbW9ucy5vcmcvbnMjIiB4bWxuczpkYz0iaHR0cDovL3B1cmwub3JnL2RjL2VsZW1lbnRzLzEuMS8iIHhtbG5zOmlua3NjYXBlPSJodHRwOi8vd3d3Lmlua3NjYXBlLm9yZy9uYW1lc3BhY2VzL2lua3NjYXBlIiB4bWxuczpyZGY9Imh0dHA6Ly93d3cudzMub3JnLzE5OTkvMDIvMjItcmRmLXN5bnRheC1ucyMiIHhtbG5zOnNvZGlwb2RpPSJodHRwOi8vc29kaXBvZGkuc291cmNlZm9yZ2UubmV0L0RURC9zb2RpcG9kaS0wLmR0ZCIgeG1sbnM6c3ZnPSJodHRwOi8vd3d3LnczLm9yZy8yMDAwL3N2ZyIgeG1sbnM9Imh0dHA6Ly93d3cudzMub3JnLzIwMDAvc3ZnIiB4bWxuczp4bGluaz0iaHR0cDovL3d3dy53My5vcmcvMTk5OS94bGluayIgdmVyc2lvbj0iMS4xIiBpZD0ic3ZnMzI3NDkiIGlua3NjYXBlOnZlcnNpb249IjAuOTIuMyAoMjQwNTU0NiwgMjAxOC0wMy0xMSkiIHNvZGlwb2RpOmRvY25hbWU9InNtYXJ0cGhvbmVfMS5zdmciIHg9IjBweCIgeT0iMHB4IiB2aWV3Qm94PSIwIDAgMjguMzIgNTYuNjQiIHN0eWxlPSJlbmFibGUtYmFja2dyb3VuZDpuZXcgMCAwIDI4LjMyIDU2LjY0OyIgeG1sOnNwYWNlPSJwcmVzZXJ2ZSI+JiN4YTs8c29kaXBvZGk6bmFtZWR2aWV3IGJvcmRlcmNvbG9yPSIjNjY2NjY2IiBib3JkZXJvcGFjaXR5PSIxIiBmaXQtbWFyZ2luLWJvdHRvbT0iMCIgZml0LW1hcmdpbi1sZWZ0PSIwIiBmaXQtbWFyZ2luLXJpZ2h0PSIwIiBmaXQtbWFyZ2luLXRvcD0iMCIgZ3JpZHRvbGVyYW5jZT0iMTAiIGd1aWRldG9sZXJhbmNlPSIxMCIgaWQ9Im5hbWVkdmlldzMyNzUxIiBpbmtzY2FwZTpjdXJyZW50LWxheWVyPSJzdmczMjc0OSIgaW5rc2NhcGU6Y3g9IjE4Ljg3OTg3OCIgaW5rc2NhcGU6Y3k9IjM3Ljc2MDIxMyIgaW5rc2NhcGU6cGFnZW9wYWNpdHk9IjAiIGlua3NjYXBlOnBhZ2VzaGFkb3c9IjIiIGlua3NjYXBlOndpbmRvdy1oZWlnaHQ9IjEwMTciIGlua3NjYXBlOndpbmRvdy1tYXhpbWl6ZWQ9IjEiIGlua3NjYXBlOndpbmRvdy13aWR0aD0iMTkyMCIgaW5rc2NhcGU6d2luZG93LXg9Ii04IiBpbmtzY2FwZTp3aW5kb3cteT0iLTgiIGlua3NjYXBlOnpvb209IjExLjE4NDI2NiIgb2JqZWN0dG9sZXJhbmNlPSIxMCIgcGFnZWNvbG9yPSIjZmZmZmZmIiBzaG93Z3JpZD0iZmFsc2UiPiYjeGE7CTwvc29kaXBvZGk6bmFtZWR2aWV3PiYjeGE7PGcgaWQ9ImczMjc0NyIgdHJhbnNmb3JtPSJ0cmFuc2xhdGUoLTAuNzQ5OTk1ODgsLTAuNzQ5OTk2MjcpIj4mI3hhOwk8dGl0bGUgaWQ9InRpdGxlMzI2NjciPlBhZ2UtMTwvdGl0bGU+JiN4YTsJPGcgaWQ9Imdyb3VwMzM5My0xIiB0cmFuc2Zvcm09InRyYW5zbGF0ZSgwLjc1LC0wLjc1KSI+JiN4YTsJCTx0aXRsZSBpZD0idGl0bGUzMjY2OSI+U21hcnRwaG9uZSAjMTwvdGl0bGU+JiN4YTsJCTxnIGlkPSJzaGFwZTMzOTQtMiI+JiN4YTsJCQk8dGl0bGUgaWQ9InRpdGxlMzI2NzEiPnBhdGgyNTk5MjwvdGl0bGU+JiN4YTsJCQk8cGF0aCBpZD0icGF0aDMyNjczIiBpbmtzY2FwZTpjb25uZWN0b3ItY3VydmF0dXJlPSIwIiBzdHlsZT0iZmlsbDojMkUyRTJFOyIgZD0iTTI2LjY2LDU4LjE0aC0yNUMwLjc1LDU4LjE0LDAsNTcuNCwwLDU2LjQ5ICAgICBjMCwwLDAsMCwwLTAuMDFWMy4xNkMwLDIuMjUsMC43NCwxLjUsMS42NSwxLjVjMCwwLDAsMCwwLjAxLDBoMjVjMC45MSwwLDEuNjYsMC43NCwxLjY2LDEuNjVjMCwwLDAsMCwwLDAuMDF2NTMuMzIgICAgIEMyOC4zMiw1Ny4zOSwyNy41OCw1OC4xNCwyNi42Niw1OC4xNEMyNi42Niw1OC4xNCwyNi42Niw1OC4xNCwyNi42Niw1OC4xNHoiLz4mI3hhOwkJPC9nPiYjeGE7CQk8ZyBpZD0ic2hhcGUzMzk1LTQiPiYjeGE7CQkJPHRpdGxlIGlkPSJ0aXRsZTMyNjc2Ij5wYXRoMjU5OTQ8L3RpdGxlPiYjeGE7CQkJPHBhdGggaWQ9InBhdGgzMjY3OCIgaW5rc2NhcGU6Y29ubmVjdG9yLWN1cnZhdHVyZT0iMCIgc3R5bGU9ImZpbGw6IzJFMkUyRTsiIGQ9Ik0wLDUwLjV2Ni4yOGMwLDAuNzUsMC42LDEuMzYsMS4zNSwxLjM2ICAgICBjMCwwLDAsMCwwLjAxLDBoMjUuNmMwLjc1LDAsMS4zNi0wLjYsMS4zNi0xLjM1YzAsMCwwLDAsMC0wLjAxVjUwLjVIMHoiLz4mI3hhOwkJPC9nPiYjeGE7CQk8ZyBpZD0ic2hhcGUzMzk2LTYiIHRyYW5zZm9ybT0idHJhbnNsYXRlKDEuNzk4MDksLTcuNjQxODYpIj4mI3hhOwkJCTx0aXRsZSBpZD0idGl0bGUzMjY4MSI+cGF0aDI1OTk2PC90aXRsZT4mI3hhOwkJCTxyZWN0IGlkPSJyZWN0MzI2ODMiIHg9IjAiIHk9IjE2Ljc4IiBzdHlsZT0iZmlsbDojMTA2RUJFOyIgd2lkdGg9IjI0LjI3IiBoZWlnaHQ9IjQxLjM2Ii8+JiN4YTsJCTwvZz4mI3hhOwkJPGcgaWQ9InNoYXBlMzM5Ny04IiB0cmFuc2Zvcm09InRyYW5zbGF0ZSg0LjUyNTMzLC0zLjc3NzMzKSI+JiN4YTsJCQk8dGl0bGUgaWQ9InRpdGxlMzI2ODYiPmNpcmNsZTI1OTk4PC90aXRsZT4mI3hhOwkJCTxjaXJjbGUgaWQ9ImVsbGlwc2UzMjY4OCIgc3R5bGU9ImZpbGw6I0FDQUNBQzsiIGN4PSIwLjc4IiBjeT0iNTcuMzYiIHI9IjAuNzgiLz4mI3hhOwkJPC9nPiYjeGE7CQk8ZyBpZD0ic2hhcGUzMzk4LTEwIiB0cmFuc2Zvcm09InRyYW5zbGF0ZSgyMS43MzcxLC0zLjc3NzMzKSI+JiN4YTsJCQk8dGl0bGUgaWQ9InRpdGxlMzI2OTEiPmNpcmNsZTI2MDAwPC90aXRsZT4mI3hhOwkJCTxjaXJjbGUgaWQ9ImVsbGlwc2UzMjY5MyIgc3R5bGU9ImZpbGw6I0FDQUNBQzsiIGN4PSIwLjc4IiBjeT0iNTcuMzYiIHI9IjAuNzgiLz4mI3hhOwkJPC9nPiYjeGE7CQk8ZyBpZD0ic2hhcGUzMzk5LTEyIiB0cmFuc2Zvcm09InRyYW5zbGF0ZSgxMy4wMzYxLC0zLjgwMzQpIj4mI3hhOwkJCTx0aXRsZSBpZD0idGl0bGUzMjY5NiI+cGF0aDI2MDAyPC90aXRsZT4mI3hhOwkJCTxwYXRoIGlkPSJwYXRoMzI2OTgiIGlua3NjYXBlOmNvbm5lY3Rvci1jdXJ2YXR1cmU9IjAiIHN0eWxlPSJmaWxsOiNBQ0FDQUM7IiBkPSJNMS4zNSw1OC4xNEwwLDU3Ljk1di0xLjI0bDEuMzUtMC4xNVY1OC4xNHoiLz4mI3hhOwkJPC9nPiYjeGE7CQk8ZyBpZD0ic2hhcGUzNDAwLTE0IiB0cmFuc2Zvcm09InRyYW5zbGF0ZSg0LjM0MDEzLC0yOS4xMDAyKSI+JiN4YTsJCQk8dGl0bGUgaWQ9InRpdGxlMzI3MDEiPnBhdGgyNjAwNDwvdGl0bGU+JiN4YTsJCQk8cGF0aCBpZD0icGF0aDMyNzAzIiBpbmtzY2FwZTpjb25uZWN0b3ItY3VydmF0dXJlPSIwIiBzdHlsZT0iZmlsbDojMjQ4OEQ4OyIgZD0iTTIxLjczLDU4LjE0di0xOS45SDBMMjEuNzMsNTguMTR6Ii8+JiN4YTsJCTwvZz4mI3hhOwkJPGcgaWQ9InNoYXBlMzQwMS0xNiIgdHJhbnNmb3JtPSJ0cmFuc2xhdGUoMTAuMjc5NywtNTMuMDM1KSI+JiN4YTsJCQk8dGl0bGUgaWQ9InRpdGxlMzI3MDYiPnBhdGgyNjAwNjwvdGl0bGU+JiN4YTsJCQkmI3hhOwkJCQk8cGF0aCBpZD0icGF0aDMyNzA4IiBpbmtzY2FwZTpjb25uZWN0b3ItY3VydmF0dXJlPSIwIiBzdHlsZT0iZmlsbDpub25lO3N0cm9rZTojNzU3NTc1O3N0cm9rZS13aWR0aDowLjQ3MjU7c3Ryb2tlLW1pdGVybGltaXQ6MzsiIGQ9IiAgICAgTTcuNjksNTcuOTFIMC43N0MwLjM0LDU4LjE0LDAsNTcuOCwwLDU3LjM3YzAuMDEtMC40MywwLjM0LTAuNzgsMC43Ny0wLjgxbDYuOTIsMGMwLjQzLDAuMDQsMC43NiwwLjM5LDAuNzcsMC44MSAgICAgQzguNDYsNTcuOCw4LjEyLDU4LjE0LDcuNjksNTcuOTF6Ii8+JiN4YTsJCTwvZz4mI3hhOwkJPGcgaWQ9InNoYXBlMzQwMi0xOCIgdHJhbnNmb3JtPSJ0cmFuc2xhdGUoMy4xNDY2NSwtMTcuMDgxOCkiPiYjeGE7CQkJPHRpdGxlIGlkPSJ0aXRsZTMyNzExIj5wYXRoMjYwMDg8L3RpdGxlPiYjeGE7CQkJPHBhdGggaWQ9InBhdGgzMjcxMyIgaW5rc2NhcGU6Y29ubmVjdG9yLWN1cnZhdHVyZT0iMCIgc3R5bGU9ImZpbGw6I0ZGRkZGRjsiIGQ9Ik0wLDQ3LjhoMjIuMDN2NC41SDBWNDcuOHogTTAsNTMuNjRoMjIuMDN2NC41SDAgICAgIFY1My42NHoiLz4mI3hhOwkJPC9nPiYjeGE7CQk8ZyBpZD0ic2hhcGUzNDAzLTIwIiB0cmFuc2Zvcm09InRyYW5zbGF0ZSgzLjE0NjY1LC0xMC43ODg1KSI+JiN4YTsJCQk8dGl0bGUgaWQ9InRpdGxlMzI3MTYiPnBhdGgyNjAxMDwvdGl0bGU+JiN4YTsJCQk8cmVjdCBpZD0icmVjdDMyNzE4IiB4PSIwIiB5PSI1My4xOSIgc3R5bGU9ImZpbGw6IzAwQjI5NDsiIHdpZHRoPSIyMi4wMyIgaGVpZ2h0PSI0Ljk0Ii8+JiN4YTsJCTwvZz4mI3hhOwkJPGcgaWQ9InNoYXBlMzQwNC0yMiIgdHJhbnNmb3JtPSJ0cmFuc2xhdGUoNC4yMTI5MSwtMzEuNjU0OCkiPiYjeGE7CQkJPHRpdGxlIGlkPSJ0aXRsZTMyNzIxIj5jaXJjbGUyNjAxMjwvdGl0bGU+JiN4YTsJCQk8Y2lyY2xlIGlkPSJlbGxpcHNlMzI3MjMiIHN0eWxlPSJmaWxsOiMwMEIyOTQ7IiBjeD0iMS4yNiIgY3k9IjU2Ljg4IiByPSIxLjI2Ii8+JiN4YTsJCTwvZz4mI3hhOwkJPGcgaWQ9InNoYXBlMzQwNS0yNCIgdHJhbnNmb3JtPSJ0cmFuc2xhdGUoMTMuMDcwNywtMzEuNjU0OCkiPiYjeGE7CQkJPHRpdGxlIGlkPSJ0aXRsZTMyNzI2Ij5jaXJjbGUyNjAxNDwvdGl0bGU+JiN4YTsJCQk8Y2lyY2xlIGlkPSJlbGxpcHNlMzI3MjgiIHN0eWxlPSJmaWxsOiNBNkE2QTY7IiBjeD0iMS4yNiIgY3k9IjU2Ljg4IiByPSIxLjI2Ii8+JiN4YTsJCTwvZz4mI3hhOwkJPGcgaWQ9InNoYXBlMzQwNi0yNiIgdHJhbnNmb3JtPSJ0cmFuc2xhdGUoNS44NDM3OCwtNDAuMDA3NCkiPiYjeGE7CQkJPHRpdGxlIGlkPSJ0aXRsZTMyNzMxIj5wYXRoMjYwMTY8L3RpdGxlPiYjeGE7CQkJPHJlY3QgaWQ9InJlY3QzMjczMyIgeD0iMCIgeT0iNTcuMjQiIHN0eWxlPSJmaWxsOiM2OUFGRTU7IiB3aWR0aD0iMTYuNjMiIGhlaWdodD0iMC45Ii8+JiN4YTsJCTwvZz4mI3hhOwkJPGcgaWQ9InNoYXBlMzQwNy0yOCIgdHJhbnNmb3JtPSJ0cmFuc2xhdGUoMjEuNTU5NSwtMzEuNjU0OCkiPiYjeGE7CQkJPHRpdGxlIGlkPSJ0aXRsZTMyNzM2Ij5jaXJjbGUyNjAxODwvdGl0bGU+JiN4YTsJCQk8Y2lyY2xlIGlkPSJlbGxpcHNlMzI3MzgiIHN0eWxlPSJmaWxsOiNBNkE2QTY7IiBjeD0iMS4yNiIgY3k9IjU2Ljg4IiByPSIxLjI2Ii8+JiN4YTsJCTwvZz4mI3hhOwkJPGcgaWQ9InNoYXBlMzQwOC0zMCIgdHJhbnNmb3JtPSJ0cmFuc2xhdGUoMS43OTgwOSwtNDIuNzA0NSkiPiYjeGE7CQkJPHRpdGxlIGlkPSJ0aXRsZTMyNzQxIj5wYXRoMjYwMjA8L3RpdGxlPiYjeGE7CQkJPHJlY3QgaWQ9InJlY3QzMjc0MyIgeD0iMCIgeT0iNTEuODUiIHN0eWxlPSJmaWxsOiNGRkE5NDA7IiB3aWR0aD0iMjQuMjciIGhlaWdodD0iNi4yOSIvPiYjeGE7CQk8L2c+JiN4YTsJPC9nPiYjeGE7PC9nPiYjeGE7PC9zdmc+;" vertex="1" parent="1">
          <mxGeometry x="210" y="472.29" width="49" height="99.75" as="geometry" />
        </mxCell>
        <mxCell id="_n596mMIc1q4cGWHqEME-6" value="" style="aspect=fixed;html=1;points=[];align=center;image;fontSize=12;image=img/lib/mscae/Kubernetes.svg;fillColor=#A9C4EB;" vertex="1" parent="1">
          <mxGeometry x="756.59" y="240" width="72.91" height="70" as="geometry" />
        </mxCell>
        <mxCell id="_n596mMIc1q4cGWHqEME-27" value="" style="edgeStyle=orthogonalEdgeStyle;rounded=0;orthogonalLoop=1;jettySize=auto;html=1;startArrow=classicThin;startFill=1;" edge="1" parent="1" source="_n596mMIc1q4cGWHqEME-8" target="_n596mMIc1q4cGWHqEME-23">
          <mxGeometry relative="1" as="geometry" />
        </mxCell>
        <mxCell id="_n596mMIc1q4cGWHqEME-30" value="" style="edgeStyle=orthogonalEdgeStyle;rounded=0;orthogonalLoop=1;jettySize=auto;html=1;entryX=1;entryY=0.25;entryDx=0;entryDy=0;startArrow=classic;startFill=1;endArrow=none;endFill=0;dashed=1;" edge="1" parent="1" source="_n596mMIc1q4cGWHqEME-8" target="_n596mMIc1q4cGWHqEME-26">
          <mxGeometry relative="1" as="geometry">
            <mxPoint x="320" y="535" as="targetPoint" />
          </mxGeometry>
        </mxCell>
        <mxCell id="_n596mMIc1q4cGWHqEME-32" value="" style="edgeStyle=orthogonalEdgeStyle;rounded=0;orthogonalLoop=1;jettySize=auto;html=1;startArrow=classic;startFill=1;endArrow=none;endFill=0;entryX=0.5;entryY=1;entryDx=0;entryDy=0;exitX=-0.006;exitY=0.605;exitDx=0;exitDy=0;exitPerimeter=0;" edge="1" parent="1" target="_n596mMIc1q4cGWHqEME-8">
          <mxGeometry relative="1" as="geometry">
            <mxPoint x="522.9800000000002" y="689.9899999999998" as="sourcePoint" />
            <mxPoint x="450" y="647" as="targetPoint" />
          </mxGeometry>
        </mxCell>
        <mxCell id="_n596mMIc1q4cGWHqEME-8" value="" style="shape=image;verticalLabelPosition=bottom;labelBackgroundColor=#ffffff;verticalAlign=top;aspect=fixed;imageAspect=0;image=data:image/png,iVBORw0KGgoAAAANSUhEUgAAAR4AAACwCAMAAADudvHOAAAAk1BMVEX///8AmXSCzbtYvKRBs5cAlW4spIMBmXXV7uh+zLl7x7MqqotUu6IAkmmi1sjg8u7y+vh0waw7qoxHrpIXpoWHz77t+PVRr5Tq9vM2sJOP0sLb8OtMuJ/A5dyx39R3vKbI6OBlwaub18iQzby54tes3dFtxK/Q7OXG49qf0sMXoX/C4tlguJ+My7mAxLCm1sh5vKcZ26HFAAATVElEQVR4nO2diXajOLOAYzAxYAzKgoPZfsAYZ+3c93+6KzBIpQ2w48yAp+vMOT3BCKSPqlKpENLd3TUEbYMoS9JDEYa+r2m+H4aFmyZZFGwRusod5iooykq38K1GNCCnI37hlln030SEvLLA2sJi4QX/irUpNf9biJCXFANgOEhF8p/RIi+t7WksG0IoTKN/u+a/LtikzlAbHpFVeresQ+joaheyaQlpbnargFBytk3JAPlp8G+35BfES3+mOICQdfD+7dZcWbYH/0pwGkC+e0sa5B0GrKoLDH2/DpzFMFFSoLgVQLXP6QcT1oMIM4oiDwv+x8SDDDfsh2T55U046UwJBw8bwqI8blUlt2ZZhGp3bmnz78UiV9E6rDNpNiKM8bK0UBGyiplHigq7wnpzRoSHgiSU2xm+zG/W/pfFC6VtwiMopUGpBCWulLSlzbaTl3ody08vHBl4pRSQn1y52v+MoEJsDB5YJj9xp1khiS1n2cebEsOyClN+MgrqzjwpyzQty+QjO0aBgqIpCaEs//h77fgdEQ0Ld1XSnE2QFL5d5bruxK04up5Xtl8kUrfiSToyK/vd1lxZ0EFsgURzguPBqnE4GAj+j0r9t1Pjst2j6Kk80Wytw5xCIKH+li+EcF4ZVk7MUBEFn5D7Qh4MHQXLtYrZ8Al4OpaWcpUPykp3BtAQRI5eCUmMlDdeK5xJDy9EO7xdoSzU43FoOokdvsvz+HB8JhGQSIcdO6LSHq04UId0m/UvKOE7eX8GQwyT03rcX8Gfg4Pa3zitKFUoZvNgohEr4obpiOdzNT7A8QM6VJLWN31UrFdW/YbU961Kb7p3CSYnd5nLpTPTn4j3mBn4EZW50GTHySutKE1uELY1k0KrclGVHJ0xsSP3NLRJ60/A0rFCWNujxftjx6mKRP0KtGZkx7wtxnYGzuE9nTVh/8wNs6wQ6AQKucgPd9fF8OAUeSkfAjg6e13unpMdgPF0XND4JGe0wHFsd7Sf8A42DwimeQ7qZzIpYSMRGOcjl21ebJ2XB90eQ9bGnAJASLmncrUGXVUy1guk9BezAm3DzlgIcNE2MEs3bCZs+KFbHgNhxB4UjF93cuDWEpbPNBNAjPJYQP0z6HUcnUsQB1m6r5wdJ3EeHjLWjXguex1wB4bPNIdf25CxLPqDy/gctmvx3EpfYhpLQeqDTuWycaDG+KCQ/lJCPv4UvTODh1oW8oHXYDtl86DLwDCM1o57BMpgQkCxRjlA/ZkkHpDFAN4RabQ5TgzVvrTjHceiE/bw0gaqiA6Aj2NTELT/mqZx4bCP1I8cC3LYGGopwfcSUMD/G+v5g62FWHz7Iddj+DMmVICioJd3curHCJ+JuuZOfSza6Xqgy3LoQw2+qeJgZcn9NDFhhIgCM0u/cqBHu5h6IaxA9KIV6cAQuf0klaeud/3KXAMYKB1Hz8h5B2dH1GJpp6qsOwpKuzmlA0TOO+pAf4h9oaK5vTtROli8pEyougPLcmxyOMlpi7+GphGg5IuydIjVeFpM+dAb1ref8JiLFWQROrHd2RvaU4cybhaTlxJL3JEBFQJ8qumqS5/YVHdIhJKQplZnONCsam1stySl6DBlnnxc8nyJ10BuC2eX81YVmEn6/fa237+9fafJkY9ckqorGXYFDySecsL58YlAl9UeQm0boZetZZtYn8vdev3cynq9W37aJYMIpZ0PIr6YRkDOpJNgUkk65XG6oM5sG7iDKRl0dOOGCC/4YPwGx/Wd19rFWXuk7G4Rg7hxJvLR1j3u/E4Wt60DQ0nk5uvnjgYjp4PrHCYuWsdFHVARzxZPlLNeuWxVx6btNbUThuc1tqWijNpfUJS49ufyxO35uQKWY7cK1A1aCucUU008Ay+TQ/1oY6s1j7RtGB1vmF8NAGxD+w/J3ITo4y1u6D2vNToB49A6oJYPHu82rv9XG/JLUlZ53kXQre7Qfhn5u0Y7dpo6FY8if3fSLp+oXNYaWGtO2DrzPFVdYOJCGp6cVEcnapAuG8XIhyZWoDRvTtwR7xLpJ9LkwPw6dV7M+ORSOxeBtEYplmNmJqMkbgARnxW0IWL2S5X9xwWd7EHv+vOstqvn8d1N6tTnr7P2zyA/GeoM/bFU0l0zoOyaUzaqsz8jpRfsGz/VeWCvCaB28+vN5XLyyx2dsLGrM1NWWWNhdvuXV/vn3Vw9siD5joS6SKsN5eHsbDB6aBxQ66xwAL6rJplRvkS2Jcn1NXS+LuhtUFiXrNq/AvcmP3pruukLnUZa648+/35cLfsf0Kl9GC6tXbM+05K0pvMDj5rU+lMMnzdTqTCe759coLav5bVqMzlJn5/3P7uC+zwv7fHMV37im1S25uvRuwtkyfcydnqEG457Hh6pmuNWjAhMc0yy3zOP5ph0o3cc3dTuvvt7Y7N4+Rgskr2sNsb9Xtqqe6NX3rkmZp/vi/fPER+Z7B9Xi/v9YIPS+81ms/gaOg/VTV29ZIO3/XhZ1E2tizwYCyzGasihlO+nE2PJb2/NT2oxbOb0dFWfb7wPfQbY1e1poN3t7Y2XAYWMT5d7H+pZysXpxAd0l3Yt2/QXCh7bEzei4/Ae++lggRWPVu3B94GwsKO+qXpPMzddE/q9otudt+hXBUSeanq3JC1Y9fL5IAryIvy2H1AefCPofTTyRPpdNFp3xd97R/af5ParXjV7ofXp1dsDwbi8A23Y9EElbVrc83X1BulgpqDiRNcMkTSUgFRz0ReGHsBTeOg5L7oH9elr6gNtD8SzWPToj03x8F3Ewwg8C+D6aTWfeiqJ20Px9GSi0RO4/XuPuzchnj5TgXhWCyjqaqjxJO8j6BiftMB18TCWbfQEnAyePoWkeFYcno2ykBIP+hyjPAuD9u1XxROwt+npYDg8avtS41FDVeL5GEVnYdBx6FXx/OFu/6j0zjwepX/uw7NR1ESJ5xkUfnrh5In+dk968WviSYTH8KU6VcCjumofHpXSqfB806dnPARbXkCViF5eE8+LoLt8hN6DR2Eq/XgWb2fggRGhrNsgUSd2zl1oeEU8NEShD0lXnCvBI1eFATzS+EeBB/Qbxh9JMQTMq6N3PTyBpMULQ/GKQIZnJbvwAB4pVDmeLSwudYrftNp5e+h6ePayyi8+5UMvGR5pqDeIZyPalxxPDpRHapNQfYztlfGYUjqqmsjxSFzJIB6J/kjxHEFE+KgYX9KBoLG/Mh4QcRkw+nqXqo8Cj+ifR+ARoMrwwIjQUAaUFOFTcFU8JSCyDh5gF3oOHuHicjzs2ID3zzI8MOh4VLbS3RBJr4lnC0bgWNvhiPM968fzzoYDnCpI8Rg5m5fgnLoMD+jUDXW2EX0Qia6J5xvc/Qmb0xc0NYl5UTyGzcXarObL8TzAGyx4/yzB4w6ps0IonsfA65GkF08A3IJxZK9bJ7J68XBNZfVHhYcfwMBKiXgCENJItXkYz+qxV+Q1ESrUpQNSUPv7ATx3f9iAEt5AiYfL+xkgOSnigREhm0sejWe0iHgy4CrbBB3TU4h5VRbP3Rd7B6A/ajx3f5gywL4EPFC5+5OYv4FHikKCTI3n7ovVH9rUHjxKoxTwwI5UHof9Jh7YqdMwp7dz5/FwWU7jW7yKiIezL5L85/EkQHmezpuIcgU8CEYhpfTwJhvCw79C6Jrai4f3z29yPEzAfN4HWFfAA1+srf5H5P9g58Xn+UU8Cv/cj4f3z19SPEyYcU63fg08JhPCgtexvYVEPLx/3o/BwxU6+WcBD1Rk46wZpj/HM+rdCB5oDOK527P6sx+DRwZV7NhhVPh5d4b8GM/x7PS2Eg/nSprXlYN4eP/8JcPDjHnOWTUXOoheUeBh3mz18mGUWo5H4p+H8Yj9u2RQkUL1OWO+IMVz/8fuEWBCDB4w2BrAwzRJgYf3z8UYPNykC2MvG5KCp6jOZ9wFxb6TjMNz0ZDUO8M4oVKr8PA5x7cxeDj/Y5DpAADPEZzwrFSf/YZYy8c18NgjTauW9Rg8nH9e0T6nB48ikctkC4FfM5SzLWjJdv7Nz/BE4+GwtVLjEd4ljsFz9zaIBybgxEHOSagX62ax/AjPyHfWnYCpLz14VFNwevHw/lnEw2QV5K8nA5CWQFfA8wGrwn+92go4A7xd6sPDj09H4YGhjRzPcGxIXTyp1E/w0ClRPdMNYDJhkY3CI3clA3ikhZjXgG8DsSF8i9zh+wmegh4z1KVhKoqc1Y+Hj59H4ZH5HwYPTBmuJK8ngfI8XOElMsy3r16VJbcwC06+we/HI3Mlg3gk9sVOQQCJF+PlGPECOkkSg/wAD0zoyN5Zk1oB8+ryCUN4JKowjEd06twElkfw+z2fLQYP+5EERpfjMaFT6c2igJkbXTJxEI/on0fgEWJ4Do/iTS4vIAK5HM96TJzVCJwO2k5MG8Yj6M8YPLx/5ucWjssugAkKF+OBg7zHgUEejFgfxuK5e2P1ZxQeDiqP5zhq6iW4+qV4mIhwKEUgTjwag4fzzysa8vel/Nw+PIrokZVVRs+/FA+I0UckmMC0tdOEilF4uKH4KO1h/bOAZztMh/ncYSweT41nMyI9CYJnHk/f54gw/lnRjwZUcy5PcqBlngSr/x5UHybfQSYFDbw9RLSfyuq/aYzV275OMtrKxhLpTCOj1zKBqSxp04z+V3nE/2zEsRWMDeWyYupNbjnwCVbn9LvIl7jbca9GSJ/RunHSb9/3v3gi/tn4pv5uaIUYt/2KZy357TCgPtwr3dZZSV70suKd8m3GqsWI2m+m+j5uABK1IRmZj7Buiw99KNx21U0KdPtntTGMx+E7po+GsVk9SJXscdOTMjYM/nG9vdffwA1/kup91tnoFzLj1fysr/Y0NrEd1cU39+Q+wcNZTf1zampUfr+O0dbg9bs05R9LHm2tR2y2PZ53F6X7cszLH3R827+CB7I9vr29jn8ni0x3X8L6mripY4p7uKkXLX/y809ti+f3WS71NEqq5/Xz3w+1lVK37u9n/mop6mUQLtafZuGfG14k4rQOwo+WGMlvcIkRfoEa/+8CNVCE5Y3OX5poe7vLG7GLY+3/Lo7FinRpta8zZoW1S6t1Pv3GllbrFubrgPxdmI8VYVnHr/OXddRub1lHflFQh4wPy25R0IFJzWRRUOJoukVByYG59vS/s6TsSXc6XPNdUnZoQeKILkhcissVoSi56QWJL1/OehuVt7+ctXIx9KV6MfT3cYuhxzewGPropfS/HdVS+o4rXUrfydoj6YyX0j9jIwaUaJ9P7EYMT592yXRqZCOGXd4dpzsJzXAjhjO38diy23hw/T36uLVtPOSbwGTdJjC7MzeBaUvdziYwzBZCFtlCKOxaesEWQkuy5+g8txDiNqCqZBtQZcwGVENRM9yASp/3BlS925eR/gZ7DR1sX1ZdsH1ZNsvty4Y2vyOH4eZ32Mp06eZ3/o1tfje8dSKwu4O4dWJla34YhtqFWye6E986EW68SR4gt/EmcDWlNnrjzRTsrsxuvEmvN/WNN9XbtpLmcNu2RoPbti53a53dttWKZ7pt60Wb/gaHZtNfGRh8VL+hTX+vvGV0tb+tLaN7NhyPKugwFBuOJ27Rt+G4N/cNx3u2q8dDAKZtsZWdtTQEOvrcdvUwupnHdvUk8hD7r3qzVqZ9jmO7o3NY0cF2WDjQsECf1dw1PAv8Pyk8H5jYuSt0tomOXhXeoJdA3gFbJgcHjtBR2HPPiUngc3WFiZijFeusOHFVJOrl6bdmUtgxX4gLDlg6mjXdMReWiOWjaRn4EZWMd+0cdaUVJZ/g2ZploVU5pzeNS06hxh199nbaxBNjHldf6wCVHR0qERBGFGPRK8vHgwrftyq9/lsg07BkXoyhlHsY/uRz8rz+WCEXBzqx2O6u9SdR/IyhsRmigDMszZq47tTi8ZXW2MQpKm1djUAluIR94DPU3IOYvu7UIvCxCm6N76zQY/0sQrEeJmwv5xX8XbRJe2UqgVjzlOvBg7IarUJ1CCDMBUv5PsASQvHpCs8HK37GhzhBGVZqP9ShiZ3KFyZRo0ww4IkOtOQidCmihdUSmAer6aMcnYsZGz+Nf7JcUwwdI4E+O4KZgWR8QIJHm6F0MkaQuL5d5Xnbv9e49Dp16BfytDp2OgIdJryahfDhrEqDThJEZvbxUZZpWpZJkpmRKj+P9U1UHX/EfktTEySaAPbRfAd0nmSFJoM+4WFWj2R873IilI7bfEwQr5RdT/Mnmt4ZFjFCPAEqkrOTDlvsoaQX8+fTn4siVaDaTfvlcDKjExQkoSXxxzWcc5Zlm6B4rpRP05Gl2QhEXpaGUjT1NYo5q85JFAp00qGwzmWoGG2PZRH6KjayUHOOghIloIYR1iM3TbJ6BZZ6nW78j5klqVvbkxJNY1e3AKcWTxKsCIzqU3ws3Z8DBW7ArqhsD30adK5YvjvPUEctXiqJ6C6DY42bNzUzwT7o54Qszb+hD904Obo/A2Rp7k30VipBXqLuqYfYWNoZseRsxUuLsxHh88N0FqnkKwjWIVcbT6ier5hcOI6dqyCvLHx/IL6pJ2z4Yar+pummBXlZeShCSwgDT0f8wi3HDMtuWtA2iPAgAmMK65C5flNaHPAgIwq2aNZo/h8IaN0xZLrjBQAAAABJRU5ErkJggg==;imageBorder=#000000;" vertex="1" parent="1">
          <mxGeometry x="400" y="500" width="107.25" height="66" as="geometry" />
        </mxCell>
        <mxCell id="_n596mMIc1q4cGWHqEME-13" value="outgame(主にマスターデータ&lt;br style=&quot;font-size: 18px;&quot;&gt;に関する処理を担うAPIサーバー)" style="text;html=1;resizable=0;autosize=1;align=center;verticalAlign=middle;points=[];fillColor=none;strokeColor=none;rounded=0;shadow=1;fontSize=18;" vertex="1" parent="1">
          <mxGeometry x="469" y="290" width="280" height="50" as="geometry" />
        </mxCell>
        <mxCell id="_n596mMIc1q4cGWHqEME-14" value="ingame(主にゲーム内の&lt;br style=&quot;font-size: 18px;&quot;&gt;処理を担うAPIサーバー)" style="text;html=1;resizable=0;autosize=1;align=center;verticalAlign=middle;points=[];fillColor=none;strokeColor=none;rounded=0;shadow=1;fontSize=18;" vertex="1" parent="1">
          <mxGeometry x="498" y="610.0000000000001" width="210" height="50" as="geometry" />
        </mxCell>
        <mxCell id="_n596mMIc1q4cGWHqEME-39" value="" style="edgeStyle=orthogonalEdgeStyle;rounded=0;orthogonalLoop=1;jettySize=auto;html=1;startArrow=classic;startFill=1;endArrow=classic;endFill=1;exitX=0.5;exitY=0;exitDx=0;exitDy=0;entryX=1;entryY=0.5;entryDx=0;entryDy=0;" edge="1" parent="1" source="_n596mMIc1q4cGWHqEME-16" target="_n596mMIc1q4cGWHqEME-56">
          <mxGeometry relative="1" as="geometry">
            <mxPoint x="789.8" y="395" as="targetPoint" />
            <Array as="points">
              <mxPoint x="790" y="397" />
            </Array>
          </mxGeometry>
        </mxCell>
        <mxCell id="_n596mMIc1q4cGWHqEME-16" value="" style="shape=image;verticalLabelPosition=bottom;labelBackgroundColor=#ffffff;verticalAlign=top;aspect=fixed;imageAspect=0;image=data:image/svg+xml,PHN2ZyB4bWxuczpjYz0iaHR0cDovL2NyZWF0aXZlY29tbW9ucy5vcmcvbnMjIiB4bWxuczpkYz0iaHR0cDovL3B1cmwub3JnL2RjL2VsZW1lbnRzLzEuMS8iIHhtbG5zOmlua3NjYXBlPSJodHRwOi8vd3d3Lmlua3NjYXBlLm9yZy9uYW1lc3BhY2VzL2lua3NjYXBlIiB4bWxuczpyZGY9Imh0dHA6Ly93d3cudzMub3JnLzE5OTkvMDIvMjItcmRmLXN5bnRheC1ucyMiIHhtbG5zOnNvZGlwb2RpPSJodHRwOi8vc29kaXBvZGkuc291cmNlZm9yZ2UubmV0L0RURC9zb2RpcG9kaS0wLmR0ZCIgeG1sbnM6c3ZnPSJodHRwOi8vd3d3LnczLm9yZy8yMDAwL3N2ZyIgeG1sbnM9Imh0dHA6Ly93d3cudzMub3JnLzIwMDAvc3ZnIiB4bWxuczp4bGluaz0iaHR0cDovL3d3dy53My5vcmcvMTk5OS94bGluayIgdmVyc2lvbj0iMS4xIiBpZD0ic3ZnMTAyMTA3IiBpbmtzY2FwZTp2ZXJzaW9uPSIwLjkyLjMgKDI0MDU1NDYsIDIwMTgtMDMtMTEpIiBzb2RpcG9kaTpkb2NuYW1lPSJteXNxbF8yLnN2ZyIgeD0iMHB4IiB5PSIwcHgiIHZpZXdCb3g9IjAgMCA1Mi44OCA2MC4wNyIgc3R5bGU9ImVuYWJsZS1iYWNrZ3JvdW5kOm5ldyAwIDAgNTIuODggNjAuMDc7IiB4bWw6c3BhY2U9InByZXNlcnZlIj4mI3hhOzxmaWx0ZXIgaWQ9ImZpbHRlcl8yIj4mI3hhOwk8ZmVHYXVzc2lhbkJsdXIgaWQ9ImZlR2F1c3NpYW5CbHVyMTAyMDc1IiBzdGREZXZpYXRpb249IjIiLz4mI3hhOzwvZmlsdGVyPiYjeGE7PHNvZGlwb2RpOm5hbWVkdmlldyBib3JkZXJjb2xvcj0iIzY2NjY2NiIgYm9yZGVyb3BhY2l0eT0iMSIgZml0LW1hcmdpbi1ib3R0b209IjAiIGZpdC1tYXJnaW4tbGVmdD0iMCIgZml0LW1hcmdpbi1yaWdodD0iMCIgZml0LW1hcmdpbi10b3A9IjAiIGdyaWR0b2xlcmFuY2U9IjEwIiBndWlkZXRvbGVyYW5jZT0iMTAiIGlkPSJuYW1lZHZpZXcxMDIxMDkiIGlua3NjYXBlOmN1cnJlbnQtbGF5ZXI9InN2ZzEwMjEwNyIgaW5rc2NhcGU6Y3g9IjM1LjI1IiBpbmtzY2FwZTpjeT0iNDAuMDQ1MjAxIiBpbmtzY2FwZTpwYWdlb3BhY2l0eT0iMCIgaW5rc2NhcGU6cGFnZXNoYWRvdz0iMiIgaW5rc2NhcGU6d2luZG93LWhlaWdodD0iMTAxNyIgaW5rc2NhcGU6d2luZG93LW1heGltaXplZD0iMSIgaW5rc2NhcGU6d2luZG93LXdpZHRoPSIxOTIwIiBpbmtzY2FwZTp3aW5kb3cteD0iLTgiIGlua3NjYXBlOndpbmRvdy15PSItOCIgaW5rc2NhcGU6em9vbT0iMTAuODI0NDc2IiBvYmplY3R0b2xlcmFuY2U9IjEwIiBwYWdlY29sb3I9IiNmZmZmZmYiIHNob3dncmlkPSJmYWxzZSI+JiN4YTsJPC9zb2RpcG9kaTpuYW1lZHZpZXc+JiN4YTs8ZyBpZD0iZzEwMjEwNSI+JiN4YTsJPHRpdGxlIGlkPSJ0aXRsZTEwMjA3OSI+UGFnZS0xPC90aXRsZT4mI3hhOwk8ZyBpZD0iZ3JvdXAzNjM3LTEiPiYjeGE7CQk8dGl0bGUgaWQ9InRpdGxlMTAyMDgxIj5NeVNRTCAjMjwvdGl0bGU+JiN4YTsJCTxnIGlkPSJzaGFwZTM2MzgtMiI+JiN4YTsJCQk8dGl0bGUgaWQ9InRpdGxlMTAyMDgzIj5EYXRhYmFzZSAjMjwvdGl0bGU+JiN4YTsJCQk8cGF0aCBpZD0icGF0aDEwMjA4NSIgaW5rc2NhcGU6Y29ubmVjdG9yLWN1cnZhdHVyZT0iMCIgc3R5bGU9ImZpbGw6IzNGNTc2NTsiIGQ9Ik0yNi43MSwwYzE0LjY0LDAsMjYuMTcsMy45MywyNi4xNyw4LjMxICAgICBjMCw0My41NCwwLDQzLjU0LDAsNDMuNTRjMCw0LjgzLTExLjUzLDguMjItMjYuMTcsOC4yMkMxMi4xNSw2MC4wNywwLDU2LjY4LDAsNTEuODVDMCw4LjMxLDAsOC4zMSwwLDguMzEgICAgIEMwLDMuOTMsMTIuMTUsMCwyNi43MSwweiBNMjYuNzEsMTQuMjFjMTIuNTksMCwyMi42OC0yLjk1LDIyLjY4LTUuOWMwLTIuODYtMTAuMDktNS4zNi0yMi42OC01LjM2Yy0xMi42LDAtMjIuNiwyLjUtMjIuNiw1LjM2ICAgICBDNC4xMSwxMS4yNiwxNC4xMSwxNC4yMSwyNi43MSwxNC4yMXoiLz4mI3hhOwkJPC9nPiYjeGE7CQk8ZyBpZD0ic2hhcGUzNjM5LTQiIHRyYW5zZm9ybT0idHJhbnNsYXRlKDEwLjU4OTIsLTcuMjMwNDkpIj4mI3hhOwkJCTx0aXRsZSBpZD0idGl0bGUxMDIwODgiPlNoZWV0LjM2Mzk8L3RpdGxlPiYjeGE7CQkJPGcgaWQ9InNoYWRvdzM2MzktNSIgdHJhbnNmb3JtPSJ0cmFuc2xhdGUoMC4zNDU2LDEuOTcyOCkiPiYjeGE7CQkJCTxnIGlkPSJwYXRoMTAyMDkwIiBpbmtzY2FwZTpjb25uZWN0b3ItY3VydmF0dXJlPSIwIiBzdHlsZT0iZmlsdGVyOnVybCgjZmlsdGVyXzIpOyI+JiN4YTsJCQkJCTxwYXRoIHN0eWxlPSJvcGFjaXR5OjAuMjI7ZmlsbDojNUI5QkQ1OyIgZD0iTTMyLjY3LDUyLjMyYy0xLjkxLTAuMDUtMy4zNiwwLjEzLTQuNjEsMC42NWMtMC4zNSwwLjE1LTAuOTIsMC4xNS0wLjk3LDAuNiAgICAgICBjMC4xOSwwLjIsMC4yMiwwLjUxLDAuMzgsMC43NmMwLjI5LDAuNDgsMC43OSwxLjEyLDEuMjQsMS40NmMwLjQ5LDAuMzcsMSwwLjc2LDEuNTIsMS4wOGMwLjkzLDAuNTcsMS45NywwLjksMi44NywxLjQ3ICAgICAgIGMwLjUzLDAuMzMsMS4wNiwwLjc2LDEuNTcsMS4xNGMwLjI2LDAuMTgsMC40MywwLjQ3LDAuNzYsMC41OWMwLTAuMDIsMC0wLjAzLDAtMC4wNWMtMC4xNy0wLjIyLTAuMjItMC41My0wLjM4LTAuNzYgICAgICAgYy0wLjIzLTAuMjQtMC40Ny0wLjQ3LTAuNy0wLjcxYy0wLjY5LTAuOTEtMS41Ni0xLjcxLTIuNDktMi4zOGMtMC43NS0wLjUzLTIuNC0xLjI1LTIuNzEtMi4xMWMtMC4wMi0wLjAyLTAuMDQtMC4wNC0wLjA2LTAuMDYgICAgICAgYzAuNTMtMC4wNiwxLjE0LTAuMjUsMS42My0wLjM4YzAuODEtMC4yMiwxLjU0LTAuMTYsMi4zOC0wLjM4YzAuMzgtMC4xMSwwLjc2LTAuMjEsMS4xNC0wLjMyYzAtMC4wNywwLTAuMTUsMC0wLjIyICAgICAgIGMtMC40Mi0wLjQ0LTAuNzMtMS4wMS0xLjE5LTEuNDFjLTEuMjItMS4wMy0yLjU0LTIuMDYtMy45LTIuOTNjLTAuNzYtMC40Ny0xLjctMC43OC0yLjUtMS4xOWMtMC4yNy0wLjEzLTAuNzQtMC4yLTAuOTItMC40MyAgICAgICBjLTAuNDItMC41NC0wLjY1LTEuMjItMC45Ny0xLjg0Yy0wLjY4LTEuMzEtMS4zNS0yLjc1LTEuOTYtNC4xMmMtMC40MS0wLjk0LTAuNjgtMS44Ny0xLjE5LTIuNzEgICAgICAgYy0yLjQ2LTQuMDUtNS4xMS02LjQ5LTkuMjEtOC44OWMtMC44OC0wLjUxLTEuOTMtMC43Mi0zLjA0LTAuOThjLTAuNTktMC4wNC0xLjE5LTAuMDctMS43OS0wLjExICAgICAgIGMtMC4zNi0wLjE1LTAuNzQtMC42LTEuMDgtMC44MWMtMS4zNi0wLjg2LTQuODUtMi43My01Ljg1LTAuMjdDMCwyOC41NiwxLjU5LDMwLjA3LDIuMTUsMzAuODZjMC40LDAuNTUsMC45MSwxLjE3LDEuMiwxLjc5ICAgICAgIGMwLjE4LDAuNCwwLjIyLDAuODEsMC4zOCwxLjI0YzAuMzksMS4wNiwwLjczLDIuMjIsMS4yNCwzLjJjMC4yNiwwLjUsMC41NCwxLjAyLDAuODcsMS40NmMwLjIsMC4yOCwwLjU0LDAuNCwwLjYsMC44MiAgICAgICBjLTAuMzQsMC40Ni0wLjM2LDEuMTktMC41NSwxLjc5Yy0wLjg0LDIuNjctMC41Miw1Ljk5LDAuNzEsNy45NmMwLjM4LDAuNjEsMS4yNywxLjkxLDIuNDksMS40MWMxLjA3LTAuNDMsMC44My0xLjc5LDEuMTQtMi45OCAgICAgICBjMC4wNy0wLjI3LDAuMDMtMC40NywwLjE2LTAuNjVjMCwwLjAyLDAsMC4wNCwwLDAuMDZjMC4zMywwLjY1LDAuNjUsMS4zLDAuOTgsMS45NWMwLjcyLDEuMTYsMiwyLjM3LDMuMDksMy4xOSAgICAgICBjMC41NiwwLjQzLDEsMS4xNywxLjczLDEuNDFjMC0wLjAxLDAtMC4wMywwLTAuMDVjLTAuMDIsMC0wLjAzLDAtMC4wNSwwYy0wLjE0LTAuMjItMC4zNi0wLjMxLTAuNTQtMC40OSAgICAgICBjLTAuNDMtMC40MS0wLjktMC45My0xLjI1LTEuNDFjLTAuOTktMS4zNC0xLjg2LTIuODEtMi42Ni00LjMzYy0wLjM4LTAuNzMtMC43MS0xLjU0LTEuMDMtMi4yOCAgICAgICBjLTAuMTItMC4yOS0wLjEyLTAuNzItMC4zOC0wLjg3Yy0wLjM1LDAuNTUtMC44NiwwLjk5LTEuMTMsMS42M2MtMC40NCwxLjAzLTAuNDksMi4yOC0wLjY1LDMuNTggICAgICAgYy0wLjEsMC4wMy0wLjA2LDAuMDEtMC4xMSwwLjA1Yy0wLjc2LTAuMTgtMS4wMi0wLjk2LTEuMy0xLjYzYy0wLjcxLTEuNjgtMC44NS00LjQtMC4yMi02LjM0YzAuMTYtMC41LDAuODktMi4wOCwwLjU5LTIuNTUgICAgICAgYy0wLjE0LTAuNDYtMC42LTAuNzMtMC44Ni0xLjA4Yy0wLjMyLTAuNDQtMC42NS0xLjAxLTAuODctMS41MmMtMC41OC0xLjMxLTAuODUtMi43OS0xLjQ2LTQuMTJjLTAuMy0wLjYzLTAuNzktMS4yNy0xLjItMS44NCAgICAgICBjLTAuNDQtMC42My0wLjk1LTEuMDktMS4zLTEuODRjLTAuMTItMC4yNy0wLjI5LTAuNy0wLjEtMC45OGMwLjA1LTAuMTgsMC4xNC0wLjI2LDAuMzItMC4zMmMwLjMyLTAuMjUsMS4xOSwwLjA4LDEuNTIsMC4yMSAgICAgICBjMC44NywwLjM2LDEuNTksMC43MSwyLjMzLDEuMmMwLjM1LDAuMjMsMC43MSwwLjY4LDEuMTQsMC44MWMwLjE2LDAsMC4zMiwwLDAuNDgsMGMwLjc3LDAuMTcsMS42MiwwLjA1LDIuMzQsMC4yNyAgICAgICBjMS4yNiwwLjM4LDIuMzgsMC45OCwzLjQxLDEuNjNjMy4xMiwxLjk3LDUuNjgsNC43OCw3LjQzLDguMTNjMC4yOCwwLjU0LDAuNCwxLjA1LDAuNjUsMS42MmMwLjUsMS4xNiwxLjEzLDIuMzQsMS42MiwzLjQ3ICAgICAgIGMwLjUsMS4xMywwLjk4LDIuMjYsMS42OCwzLjJjMC4zNywwLjQ5LDEuOCwwLjc2LDIuNDQsMS4wM2MwLjQ2LDAuMTksMS4yLDAuMzksMS42MywwLjY1YzAuODIsMC40OSwxLjYxLDEuMDgsMi4zOCwxLjYzICAgICAgIEMzMS40Myw1MS4yNCwzMi42MSw1MS44MywzMi42Nyw1Mi4zMnoiLz4mI3hhOwkJCQk8L2c+JiN4YTsJCQk8L2c+JiN4YTsJCQk8cGF0aCBpZD0icGF0aDEwMjA5MyIgaW5rc2NhcGU6Y29ubmVjdG9yLWN1cnZhdHVyZT0iMCIgc3R5bGU9ImZpbGw6I0ZGRkZGRjsiIGQ9Ik0zMi42Nyw1Mi4zMmMtMS45MS0wLjA1LTMuMzYsMC4xMy00LjYxLDAuNjUgICAgIGMtMC4zNSwwLjE1LTAuOTIsMC4xNS0wLjk3LDAuNmMwLjE5LDAuMiwwLjIyLDAuNTEsMC4zOCwwLjc2YzAuMjksMC40OCwwLjc5LDEuMTIsMS4yNCwxLjQ2YzAuNDksMC4zNywxLDAuNzYsMS41MiwxLjA4ICAgICBjMC45MywwLjU3LDEuOTcsMC45LDIuODcsMS40N2MwLjUzLDAuMzMsMS4wNiwwLjc2LDEuNTcsMS4xNGMwLjI2LDAuMTgsMC40MywwLjQ3LDAuNzYsMC41OWMwLTAuMDIsMC0wLjAzLDAtMC4wNSAgICAgYy0wLjE3LTAuMjItMC4yMi0wLjUzLTAuMzgtMC43NmMtMC4yMy0wLjI0LTAuNDctMC40Ny0wLjctMC43MWMtMC42OS0wLjkxLTEuNTYtMS43MS0yLjQ5LTIuMzhjLTAuNzUtMC41My0yLjQtMS4yNS0yLjcxLTIuMTEgICAgIGMtMC4wMi0wLjAyLTAuMDQtMC4wNC0wLjA2LTAuMDZjMC41My0wLjA2LDEuMTQtMC4yNSwxLjYzLTAuMzhjMC44MS0wLjIyLDEuNTQtMC4xNiwyLjM4LTAuMzhjMC4zOC0wLjExLDAuNzYtMC4yMSwxLjE0LTAuMzIgICAgIGMwLTAuMDcsMC0wLjE1LDAtMC4yMmMtMC40Mi0wLjQ0LTAuNzMtMS4wMS0xLjE5LTEuNDFjLTEuMjItMS4wMy0yLjU0LTIuMDYtMy45LTIuOTNjLTAuNzYtMC40Ny0xLjctMC43OC0yLjUtMS4xOSAgICAgYy0wLjI3LTAuMTMtMC43NC0wLjItMC45Mi0wLjQzYy0wLjQyLTAuNTQtMC42NS0xLjIyLTAuOTctMS44NGMtMC42OC0xLjMxLTEuMzUtMi43NS0xLjk2LTQuMTJjLTAuNDEtMC45NC0wLjY4LTEuODctMS4xOS0yLjcxICAgICBjLTIuNDYtNC4wNS01LjExLTYuNDktOS4yMS04Ljg5Yy0wLjg4LTAuNTEtMS45My0wLjcyLTMuMDQtMC45OGMtMC41OS0wLjA0LTEuMTktMC4wNy0xLjc5LTAuMTFjLTAuMzYtMC4xNS0wLjc0LTAuNi0xLjA4LTAuODEgICAgIGMtMS4zNi0wLjg2LTQuODUtMi43My01Ljg1LTAuMjdDMCwyOC41NiwxLjU5LDMwLjA3LDIuMTUsMzAuODZjMC40LDAuNTUsMC45MSwxLjE3LDEuMiwxLjc5YzAuMTgsMC40LDAuMjIsMC44MSwwLjM4LDEuMjQgICAgIGMwLjM5LDEuMDYsMC43MywyLjIyLDEuMjQsMy4yYzAuMjYsMC41LDAuNTQsMS4wMiwwLjg3LDEuNDZjMC4yLDAuMjgsMC41NCwwLjQsMC42LDAuODJjLTAuMzQsMC40Ni0wLjM2LDEuMTktMC41NSwxLjc5ICAgICBjLTAuODQsMi42Ny0wLjUyLDUuOTksMC43MSw3Ljk2YzAuMzgsMC42MSwxLjI3LDEuOTEsMi40OSwxLjQxYzEuMDctMC40MywwLjgzLTEuNzksMS4xNC0yLjk4YzAuMDctMC4yNywwLjAzLTAuNDcsMC4xNi0wLjY1ICAgICBjMCwwLjAyLDAsMC4wNCwwLDAuMDZjMC4zMywwLjY1LDAuNjUsMS4zLDAuOTgsMS45NWMwLjcyLDEuMTYsMiwyLjM3LDMuMDksMy4xOWMwLjU2LDAuNDMsMSwxLjE3LDEuNzMsMS40MSAgICAgYzAtMC4wMSwwLTAuMDMsMC0wLjA1Yy0wLjAyLDAtMC4wMywwLTAuMDUsMGMtMC4xNC0wLjIyLTAuMzYtMC4zMS0wLjU0LTAuNDljLTAuNDMtMC40MS0wLjktMC45My0xLjI1LTEuNDEgICAgIGMtMC45OS0xLjM0LTEuODYtMi44MS0yLjY2LTQuMzNjLTAuMzgtMC43My0wLjcxLTEuNTQtMS4wMy0yLjI4Yy0wLjEyLTAuMjktMC4xMi0wLjcyLTAuMzgtMC44N2MtMC4zNSwwLjU1LTAuODYsMC45OS0xLjEzLDEuNjMgICAgIGMtMC40NCwxLjAzLTAuNDksMi4yOC0wLjY1LDMuNThjLTAuMSwwLjAzLTAuMDYsMC4wMS0wLjExLDAuMDVjLTAuNzYtMC4xOC0xLjAyLTAuOTYtMS4zLTEuNjNjLTAuNzEtMS42OC0wLjg1LTQuNC0wLjIyLTYuMzQgICAgIGMwLjE2LTAuNSwwLjg5LTIuMDgsMC41OS0yLjU1Yy0wLjE0LTAuNDYtMC42LTAuNzMtMC44Ni0xLjA4Yy0wLjMyLTAuNDQtMC42NS0xLjAxLTAuODctMS41MmMtMC41OC0xLjMxLTAuODUtMi43OS0xLjQ2LTQuMTIgICAgIGMtMC4zLTAuNjMtMC43OS0xLjI3LTEuMi0xLjg0Yy0wLjQ0LTAuNjMtMC45NS0xLjA5LTEuMy0xLjg0Yy0wLjEyLTAuMjctMC4yOS0wLjctMC4xLTAuOThjMC4wNS0wLjE4LDAuMTQtMC4yNiwwLjMyLTAuMzIgICAgIGMwLjMyLTAuMjUsMS4xOSwwLjA4LDEuNTIsMC4yMWMwLjg3LDAuMzYsMS41OSwwLjcxLDIuMzMsMS4yYzAuMzUsMC4yMywwLjcxLDAuNjgsMS4xNCwwLjgxYzAuMTYsMCwwLjMyLDAsMC40OCwwICAgICBjMC43NywwLjE3LDEuNjIsMC4wNSwyLjM0LDAuMjdjMS4yNiwwLjM4LDIuMzgsMC45OCwzLjQxLDEuNjNjMy4xMiwxLjk3LDUuNjgsNC43OCw3LjQzLDguMTNjMC4yOCwwLjU0LDAuNCwxLjA1LDAuNjUsMS42MiAgICAgYzAuNSwxLjE2LDEuMTMsMi4zNCwxLjYyLDMuNDdjMC41LDEuMTMsMC45OCwyLjI2LDEuNjgsMy4yYzAuMzcsMC40OSwxLjgsMC43NiwyLjQ0LDEuMDNjMC40NiwwLjE5LDEuMiwwLjM5LDEuNjMsMC42NSAgICAgYzAuODIsMC40OSwxLjYxLDEuMDgsMi4zOCwxLjYzQzMxLjQzLDUxLjI0LDMyLjYxLDUxLjgzLDMyLjY3LDUyLjMyeiIvPiYjeGE7CQk8L2c+JiN4YTsJCTxnIGlkPSJzaGFwZTM2NDAtOSIgdHJhbnNmb3JtPSJ0cmFuc2xhdGUoMTguMDU0MiwtMzMuMzU2NSkiPiYjeGE7CQkJPHRpdGxlIGlkPSJ0aXRsZTEwMjA5NiI+U2hlZXQuMzY0MDwvdGl0bGU+JiN4YTsJCQk8ZyBpZD0ic2hhZG93MzY0MC0xMCIgdHJhbnNmb3JtPSJ0cmFuc2xhdGUoMC4zNDU2LDEuOTcyOCkiPiYjeGE7CQkJCTxnIGlkPSJwYXRoMTAyMDk4IiBpbmtzY2FwZTpjb25uZWN0b3ItY3VydmF0dXJlPSIwIiBzdHlsZT0iZmlsdGVyOnVybCgjZmlsdGVyXzIpOyI+JiN4YTsJCQkJCTxwYXRoIHN0eWxlPSJvcGFjaXR5OjAuMjI7ZmlsbDojNUI5QkQ1OyIgZD0iTTAuOTgsNTcuOEMwLjU4LDU3Ljc5LDAuMyw1Ny44NCwwLDU3LjljMCwwLjAyLDAsMC4wNCwwLDAuMDYgICAgICAgYzAuMDIsMCwwLjA0LDAsMC4wNSwwYzAuMTksMC4zOSwwLjUzLDAuNjQsMC43NiwwLjk3YzAuMTgsMC4zOCwwLjM2LDAuNzYsMC41NSwxLjE0YzAuMDEtMC4wMiwwLjAzLTAuMDMsMC4wNS0wLjA1ICAgICAgIGMwLjMzLTAuMjQsMC40OS0wLjYyLDAuNDktMS4xOWMtMC4xNC0wLjE1LTAuMTYtMC4zMi0wLjI3LTAuNDlDMS40Nyw1OC4xMSwxLjE3LDU3Ljk4LDAuOTgsNTcuOHoiLz4mI3hhOwkJCQk8L2c+JiN4YTsJCQk8L2c+JiN4YTsJCQk8cGF0aCBpZD0icGF0aDEwMjEwMSIgaW5rc2NhcGU6Y29ubmVjdG9yLWN1cnZhdHVyZT0iMCIgc3R5bGU9ImZpbGw6I0ZGRkZGRjsiIGQ9Ik0wLjk4LDU3LjhDMC41OCw1Ny43OSwwLjMsNTcuODQsMCw1Ny45ICAgICBjMCwwLjAyLDAsMC4wNCwwLDAuMDZjMC4wMiwwLDAuMDQsMCwwLjA1LDBjMC4xOSwwLjM5LDAuNTMsMC42NCwwLjc2LDAuOTdjMC4xOCwwLjM4LDAuMzYsMC43NiwwLjU1LDEuMTQgICAgIGMwLjAxLTAuMDIsMC4wMy0wLjAzLDAuMDUtMC4wNWMwLjMzLTAuMjQsMC40OS0wLjYyLDAuNDktMS4xOWMtMC4xNC0wLjE1LTAuMTYtMC4zMi0wLjI3LTAuNDlDMS40Nyw1OC4xMSwxLjE3LDU3Ljk4LDAuOTgsNTcuOHogICAgICIvPiYjeGE7CQk8L2c+JiN4YTsJPC9nPiYjeGE7PC9nPiYjeGE7PC9zdmc+;shadow=1;fillColor=#A9C4EB;" vertex="1" parent="1">
          <mxGeometry x="750" y="490" width="79.5" height="90" as="geometry" />
        </mxCell>
        <mxCell id="_n596mMIc1q4cGWHqEME-23" value="" style="shape=image;verticalLabelPosition=bottom;labelBackgroundColor=#ffffff;verticalAlign=top;aspect=fixed;imageAspect=0;image=data:image/svg+xml,PHN2ZyB4bWxuczpjYz0iaHR0cDovL2NyZWF0aXZlY29tbW9ucy5vcmcvbnMjIiB4bWxuczpkYz0iaHR0cDovL3B1cmwub3JnL2RjL2VsZW1lbnRzLzEuMS8iIHhtbG5zOmlua3NjYXBlPSJodHRwOi8vd3d3Lmlua3NjYXBlLm9yZy9uYW1lc3BhY2VzL2lua3NjYXBlIiB4bWxuczpyZGY9Imh0dHA6Ly93d3cudzMub3JnLzE5OTkvMDIvMjItcmRmLXN5bnRheC1ucyMiIHhtbG5zOnNvZGlwb2RpPSJodHRwOi8vc29kaXBvZGkuc291cmNlZm9yZ2UubmV0L0RURC9zb2RpcG9kaS0wLmR0ZCIgeG1sbnM6c3ZnPSJodHRwOi8vd3d3LnczLm9yZy8yMDAwL3N2ZyIgeG1sbnM9Imh0dHA6Ly93d3cudzMub3JnLzIwMDAvc3ZnIiB4bWxuczp4bGluaz0iaHR0cDovL3d3dy53My5vcmcvMTk5OS94bGluayIgdmVyc2lvbj0iMS4xIiBpZD0ic3ZnMTAzNDc0IiBpbmtzY2FwZTp2ZXJzaW9uPSIwLjkyLjMgKDI0MDU1NDYsIDIwMTgtMDMtMTEpIiBzb2RpcG9kaTpkb2NuYW1lPSJyZWRpcy5zdmciIHg9IjBweCIgeT0iMHB4IiB2aWV3Qm94PSIwIDAgMzcuNTEgMzEuNiIgc3R5bGU9ImVuYWJsZS1iYWNrZ3JvdW5kOm5ldyAwIDAgMzcuNTEgMzEuNjsiIHhtbDpzcGFjZT0icHJlc2VydmUiPiYjeGE7PHNvZGlwb2RpOm5hbWVkdmlldyBib3JkZXJjb2xvcj0iIzY2NjY2NiIgYm9yZGVyb3BhY2l0eT0iMSIgZml0LW1hcmdpbi1ib3R0b209IjAiIGZpdC1tYXJnaW4tbGVmdD0iMCIgZml0LW1hcmdpbi1yaWdodD0iMCIgZml0LW1hcmdpbi10b3A9IjAiIGdyaWR0b2xlcmFuY2U9IjEwIiBndWlkZXRvbGVyYW5jZT0iMTAiIGlkPSJuYW1lZHZpZXcxMDM0NzYiIGlua3NjYXBlOmN1cnJlbnQtbGF5ZXI9InN2ZzEwMzQ3NCIgaW5rc2NhcGU6Y3g9IjI1LjAwNTA2MyIgaW5rc2NhcGU6Y3k9IjIxLjA2NDU5MiIgaW5rc2NhcGU6cGFnZW9wYWNpdHk9IjAiIGlua3NjYXBlOnBhZ2VzaGFkb3c9IjIiIGlua3NjYXBlOndpbmRvdy1oZWlnaHQ9IjEwMTciIGlua3NjYXBlOndpbmRvdy1tYXhpbWl6ZWQ9IjEiIGlua3NjYXBlOndpbmRvdy13aWR0aD0iMTkyMCIgaW5rc2NhcGU6d2luZG93LXg9Ii04IiBpbmtzY2FwZTp3aW5kb3cteT0iLTgiIGlua3NjYXBlOnpvb209IjE5LjY0MjUwNCIgb2JqZWN0dG9sZXJhbmNlPSIxMCIgcGFnZWNvbG9yPSIjZmZmZmZmIiBzaG93Z3JpZD0iZmFsc2UiPiYjeGE7CTwvc29kaXBvZGk6bmFtZWR2aWV3PiYjeGE7PGcgaWQ9ImcxMDM0NzIiIHRyYW5zZm9ybT0idHJhbnNsYXRlKC0wLjc0NjgyNzEsLTAuNzUxNjI1KSI+JiN4YTsJPHRpdGxlIGlkPSJ0aXRsZTEwMzM4OCI+UGFnZS0xPC90aXRsZT4mI3hhOwk8ZyBpZD0iZ3JvdXAzNzc2LTEiIHRyYW5zZm9ybT0idHJhbnNsYXRlKDAuNDA3MjksLTAuNjA5Mzc1KSI+JiN4YTsJCTx0aXRsZSBpZD0idGl0bGUxMDMzOTAiPlJlZGlzLjYzNjwvdGl0bGU+JiN4YTsJCTxnIGlkPSJncm91cDM3NzctMiI+JiN4YTsJCQk8dGl0bGUgaWQ9InRpdGxlMTAzMzkyIj5TaGVldC4zNzc3PC90aXRsZT4mI3hhOwkJCTxnIGlkPSJzaGFwZTM3NzgtMyIgdHJhbnNmb3JtPSJ0cmFuc2xhdGUoMC4yMzcpIj4mI3hhOwkJCQk8dGl0bGUgaWQ9InRpdGxlMTAzMzk0Ij5TaGVldC4zNzc4PC90aXRsZT4mI3hhOwkJCQk8cGF0aCBpZD0icGF0aDEwMzM5NiIgaW5rc2NhcGU6Y29ubmVjdG9yLWN1cnZhdHVyZT0iMCIgc3R5bGU9ImZpbGw6I0JBMTQxQTsiIGQ9Ik0wLjExLDI1LjE5Yy0wLjA2LDAuNCwwLjI4LDAuOCwxLjAyLDEuMTEgICAgICBsMTUuMjQsNi4yNGMxLjM3LDAuNTYsMy42LDAuNTYsNC45NywwbDE1LjI0LTYuMjRjMC43NC0wLjMxLDEuMDgtMC43MSwxLjAyLTEuMTF2LTMuNThjMC4wNSwwLjM5LTAuMjksMC43OS0xLjAyLDEuMDkgICAgICBsLTE1LjI0LDYuMjRjLTEuMzcsMC41Ni0zLjYsMC41Ni00Ljk3LDBMMS4xMywyMi43Yy0wLjgtMC4zMy0xLjEzLTAuNzgtMS0xLjJMMC4xMSwyNS4xOXoiLz4mI3hhOwkJCTwvZz4mI3hhOwkJCTxnIGlkPSJzaGFwZTM3NzktNSIgdHJhbnNmb3JtPSJ0cmFuc2xhdGUoMCwtMy42KSI+JiN4YTsJCQkJPHRpdGxlIGlkPSJ0aXRsZTEwMzM5OSI+U2hlZXQuMzc3OTwvdGl0bGU+JiN4YTsJCQkJPHBhdGggaWQ9InBhdGgxMDM0MDEiIGlua3NjYXBlOmNvbm5lY3Rvci1jdXJ2YXR1cmU9IjAiIHN0eWxlPSJmaWxsOiNCQTE0MUE7IiBkPSJNMzYuODEsMjQuMjZjMS4zOCwwLjU3LDEuMzgsMS40OCwwLDIuMDQgICAgICBsLTE1LjIzLDYuMjRjLTEuMzcsMC41Ni0zLjYsMC41Ni00Ljk3LDBMMS4zNywyNi4zQzAsMjUuNzQsMCwyNC44MywxLjM3LDI0LjI2bDE1LjI0LTYuMjRjMS4zNy0wLjU2LDMuNi0wLjU2LDQuOTcsMCAgICAgIEwzNi44MSwyNC4yNnoiLz4mI3hhOwkJCTwvZz4mI3hhOwkJPC9nPiYjeGE7CQk8ZyBpZD0iZ3JvdXAzNzgwLTciIHRyYW5zZm9ybT0idHJhbnNsYXRlKDAsLTYuMzE5NSkiPiYjeGE7CQkJPHRpdGxlIGlkPSJ0aXRsZTEwMzQwNSI+U2hlZXQuMzc4MDwvdGl0bGU+JiN4YTsJCQk8ZyBpZD0ic2hhcGUzNzgxLTgiIHRyYW5zZm9ybT0idHJhbnNsYXRlKDAuMjM3KSI+JiN4YTsJCQkJPHRpdGxlIGlkPSJ0aXRsZTEwMzQwNyI+U2hlZXQuMzc4MTwvdGl0bGU+JiN4YTsJCQkJPHBhdGggaWQ9InBhdGgxMDM0MDkiIGlua3NjYXBlOmNvbm5lY3Rvci1jdXJ2YXR1cmU9IjAiIHN0eWxlPSJmaWxsOiNCQTE0MUE7IiBkPSJNMC4xMSwyNS4xOWMtMC4wNiwwLjQsMC4yOCwwLjgsMS4wMiwxLjExICAgICAgbDE1LjI0LDYuMjRjMS4zNywwLjU2LDMuNiwwLjU2LDQuOTcsMGwxNS4yNC02LjI0YzAuNzQtMC4zMSwxLjA4LTAuNzEsMS4wMi0xLjExdi0zLjU4YzAuMDUsMC4zOS0wLjI5LDAuNzktMS4wMiwxLjA5ICAgICAgbC0xNS4yNCw2LjI0Yy0xLjM3LDAuNTYtMy42LDAuNTYtNC45NywwTDEuMTMsMjIuN2MtMC44LTAuMzMtMS4xMy0wLjc4LTEtMS4yTDAuMTEsMjUuMTl6Ii8+JiN4YTsJCQk8L2c+JiN4YTsJCQk8ZyBpZD0ic2hhcGUzNzgyLTEwIiB0cmFuc2Zvcm09InRyYW5zbGF0ZSgwLC0zLjYpIj4mI3hhOwkJCQk8dGl0bGUgaWQ9InRpdGxlMTAzNDEyIj5TaGVldC4zNzgyPC90aXRsZT4mI3hhOwkJCQk8cGF0aCBpZD0icGF0aDEwMzQxNCIgaW5rc2NhcGU6Y29ubmVjdG9yLWN1cnZhdHVyZT0iMCIgc3R5bGU9ImZpbGw6I0JBMTQxQTsiIGQ9Ik0zNi44MSwyNC4yNmMxLjM4LDAuNTcsMS4zOCwxLjQ4LDAsMi4wNCAgICAgIGwtMTUuMjMsNi4yNGMtMS4zNywwLjU2LTMuNiwwLjU2LTQuOTcsMEwxLjM3LDI2LjNDMCwyNS43NCwwLDI0LjgzLDEuMzcsMjQuMjZsMTUuMjQtNi4yNGMxLjM3LTAuNTYsMy42LTAuNTYsNC45NywwICAgICAgTDM2LjgxLDI0LjI2eiIvPiYjeGE7CQkJPC9nPiYjeGE7CQk8L2c+JiN4YTsJCTxnIGlkPSJncm91cDM3ODMtMTIiPiYjeGE7CQkJPHRpdGxlIGlkPSJ0aXRsZTEwMzQxOCI+U2hlZXQuMzc4MzwvdGl0bGU+JiN4YTsJCQk8ZyBpZD0ic2hhcGUzNzg0LTEzIiB0cmFuc2Zvcm09InRyYW5zbGF0ZSgwLjIzNywtMTIuNjM5KSI+JiN4YTsJCQkJPHRpdGxlIGlkPSJ0aXRsZTEwMzQyMCI+U2hlZXQuMzc4NDwvdGl0bGU+JiN4YTsJCQkJPHBhdGggaWQ9InBhdGgxMDM0MjIiIGlua3NjYXBlOmNvbm5lY3Rvci1jdXJ2YXR1cmU9IjAiIHN0eWxlPSJmaWxsOiNCQTE0MUE7IiBkPSJNMC4xMSwyNS4xOWMtMC4wNiwwLjQsMC4yOCwwLjgsMS4wMiwxLjExICAgICAgbDE1LjI0LDYuMjRjMS4zNywwLjU2LDMuNiwwLjU2LDQuOTcsMGwxNS4yNC02LjI0YzAuNzQtMC4zMSwxLjA4LTAuNzEsMS4wMi0xLjExdi0zLjU4YzAuMDUsMC4zOS0wLjI5LDAuNzktMS4wMiwxLjA5ICAgICAgbC0xNS4yNCw2LjI0Yy0xLjM3LDAuNTYtMy42LDAuNTYtNC45NywwTDEuMTMsMjIuN2MtMC44LTAuMzMtMS4xMy0wLjc4LTEtMS4yTDAuMTEsMjUuMTl6Ii8+JiN4YTsJCQk8L2c+JiN4YTsJCQk8ZyBpZD0ic2hhcGUzNzg1LTE1IiB0cmFuc2Zvcm09InRyYW5zbGF0ZSgwLjIzNykiPiYjeGE7CQkJCTx0aXRsZSBpZD0idGl0bGUxMDM0MjUiPlNoZWV0LjM3ODU8L3RpdGxlPiYjeGE7CQkJCTxwYXRoIGlkPSJwYXRoMTAzNDI3IiBpbmtzY2FwZTpjb25uZWN0b3ItY3VydmF0dXJlPSIwIiBzdHlsZT0iZmlsbDojMUUxRTFFO2ZpbGwtb3BhY2l0eTowLjI1OyIgZD0iTTAuMTEsMjUuMTkgICAgICBjLTAuMDYsMC40LDAuMjgsMC44LDEuMDIsMS4xMWwxNS4yNCw2LjI0YzEuMzcsMC41NiwzLjYsMC41Niw0Ljk3LDBsMTUuMjQtNi4yNGMwLjc0LTAuMzEsMS4wOC0wLjcxLDEuMDItMS4xMXYtMy41OCAgICAgIGMwLjA1LDAuMzktMC4yOSwwLjc5LTEuMDIsMS4wOWwtMTUuMjQsNi4yNGMtMS4zNywwLjU2LTMuNiwwLjU2LTQuOTcsMEwxLjEzLDIyLjdjLTAuOC0wLjMzLTEuMTMtMC43OC0xLTEuMkwwLjExLDI1LjE5eiIvPiYjeGE7CQkJPC9nPiYjeGE7CQkJPGcgaWQ9InNoYXBlMzc4Ni0xNyIgdHJhbnNmb3JtPSJ0cmFuc2xhdGUoMC4yMzcsLTYuMzE5NSkiPiYjeGE7CQkJCTx0aXRsZSBpZD0idGl0bGUxMDM0MzAiPlNoZWV0LjM3ODY8L3RpdGxlPiYjeGE7CQkJCTxwYXRoIGlkPSJwYXRoMTAzNDMyIiBpbmtzY2FwZTpjb25uZWN0b3ItY3VydmF0dXJlPSIwIiBzdHlsZT0iZmlsbDojMUUxRTFFO2ZpbGwtb3BhY2l0eTowLjI1OyIgZD0iTTAuMTEsMjUuMTkgICAgICBjLTAuMDYsMC40LDAuMjgsMC44LDEuMDIsMS4xMWwxNS4yNCw2LjI0YzEuMzcsMC41NiwzLjYsMC41Niw0Ljk3LDBsMTUuMjQtNi4yNGMwLjc0LTAuMzEsMS4wOC0wLjcxLDEuMDItMS4xMXYtMy41OCAgICAgIGMwLjA1LDAuMzktMC4yOSwwLjc5LTEuMDIsMS4wOWwtMTUuMjQsNi4yNGMtMS4zNywwLjU2LTMuNiwwLjU2LTQuOTcsMEwxLjEzLDIyLjdjLTAuOC0wLjMzLTEuMTMtMC43OC0xLTEuMkwwLjExLDI1LjE5eiIvPiYjeGE7CQkJPC9nPiYjeGE7CQkJPGcgaWQ9InNoYXBlMzc4Ny0xOSIgdHJhbnNmb3JtPSJ0cmFuc2xhdGUoMC4yMzcsLTEyLjYzOSkiPiYjeGE7CQkJCTx0aXRsZSBpZD0idGl0bGUxMDM0MzUiPlNoZWV0LjM3ODc8L3RpdGxlPiYjeGE7CQkJCTxwYXRoIGlkPSJwYXRoMTAzNDM3IiBpbmtzY2FwZTpjb25uZWN0b3ItY3VydmF0dXJlPSIwIiBzdHlsZT0iZmlsbDojMUUxRTFFO2ZpbGwtb3BhY2l0eTowLjI1OyIgZD0iTTAuMTEsMjUuMTkgICAgICBjLTAuMDYsMC40LDAuMjgsMC44LDEuMDIsMS4xMWwxNS4yNCw2LjI0YzEuMzcsMC41NiwzLjYsMC41Niw0Ljk3LDBsMTUuMjQtNi4yNGMwLjc0LTAuMzEsMS4wOC0wLjcxLDEuMDItMS4xMXYtMy41OCAgICAgIGMwLjA1LDAuMzktMC4yOSwwLjc5LTEuMDIsMS4wOWwtMTUuMjQsNi4yNGMtMS4zNywwLjU2LTMuNiwwLjU2LTQuOTcsMEwxLjEzLDIyLjdjLTAuOC0wLjMzLTEuMTMtMC43OC0xLTEuMkwwLjExLDI1LjE5eiIvPiYjeGE7CQkJPC9nPiYjeGE7CQkJPGcgaWQ9InNoYXBlMzc4OC0yMSIgdHJhbnNmb3JtPSJ0cmFuc2xhdGUoMCwtMTYuMjM5KSI+JiN4YTsJCQkJPHRpdGxlIGlkPSJ0aXRsZTEwMzQ0MCI+U2hlZXQuMzc4ODwvdGl0bGU+JiN4YTsJCQkJPHBhdGggaWQ9InBhdGgxMDM0NDIiIGlua3NjYXBlOmNvbm5lY3Rvci1jdXJ2YXR1cmU9IjAiIHN0eWxlPSJmaWxsOiNCQTE0MUE7IiBkPSJNMzYuODEsMjQuMjZjMS4zOCwwLjU3LDEuMzgsMS40OCwwLDIuMDQgICAgICBsLTE1LjIzLDYuMjRjLTEuMzcsMC41Ni0zLjYsMC41Ni00Ljk3LDBMMS4zNywyNi4zQzAsMjUuNzQsMCwyNC44MywxLjM3LDI0LjI2bDE1LjI0LTYuMjRjMS4zNy0wLjU2LDMuNi0wLjU2LDQuOTcsMCAgICAgIEwzNi44MSwyNC4yNnoiLz4mI3hhOwkJCTwvZz4mI3hhOwkJPC9nPiYjeGE7CQk8ZyBpZD0ic2hhcGUzNzg5LTIzIiB0cmFuc2Zvcm09InRyYW5zbGF0ZSg2LjM2MTUsLTIyLjExMjMpIj4mI3hhOwkJCTx0aXRsZSBpZD0idGl0bGUxMDM0NDYiPlNoZWV0LjM3ODk8L3RpdGxlPiYjeGE7CQkJPHBhdGggaWQ9InBhdGgxMDM0NDgiIGlua3NjYXBlOmNvbm5lY3Rvci1jdXJ2YXR1cmU9IjAiIHN0eWxlPSJmaWxsOiNGRkZGRkY7IiBkPSJNOC4wNCwzMi4zM2MtMS43NCwwLjc3LTQuNTYsMC43Ny02LjMsMCAgICAgQzAsMzEuNTYsMCwzMC4zLDEuNzQsMjkuNTNjMS43NC0wLjc3LDQuNTYtMC43Nyw2LjMsMEM5Ljc3LDMwLjMsOS43OCwzMS41Niw4LjA0LDMyLjMzeiIvPiYjeGE7CQk8L2c+JiN4YTsJCTxnIGlkPSJzaGFwZTM3OTAtMjUiIHRyYW5zZm9ybT0idHJhbnNsYXRlKDEzLjIxOCwtMTcuOTg4KSI+JiN4YTsJCQk8dGl0bGUgaWQ9InRpdGxlMTAzNDUxIj5TaGVldC4zNzkwPC90aXRsZT4mI3hhOwkJCTxwYXRoIGlkPSJwYXRoMTAzNDUzIiBpbmtzY2FwZTpjb25uZWN0b3ItY3VydmF0dXJlPSIwIiBzdHlsZT0iZmlsbDojRkZGRkZGOyIgZD0iTTAsMzAuMmw4LjkyLTEuMDZMNi41MywzMy4xTDAsMzAuMnoiLz4mI3hhOwkJPC9nPiYjeGE7CQk8ZyBpZD0ic2hhcGUzNzkxLTI3IiB0cmFuc2Zvcm09InRyYW5zbGF0ZSgyMS44NjQsLTIxLjg5MSkiPiYjeGE7CQkJPHRpdGxlIGlkPSJ0aXRsZTEwMzQ1NiI+U2hlZXQuMzc5MTwvdGl0bGU+JiN4YTsJCQk8cGF0aCBpZD0icGF0aDEwMzQ1OCIgaW5rc2NhcGU6Y29ubmVjdG9yLWN1cnZhdHVyZT0iMCIgc3R5bGU9ImZpbGw6IzFFMUUxRTtmaWxsLW9wYWNpdHk6MC4yNTsiIGQ9Ik01LjM0LDMzLjFMMCwzMC43MyAgICAgbDUuMzQtMi4zN2w1LjMzLDIuMzdMNS4zNCwzMy4xeiIvPiYjeGE7CQk8L2c+JiN4YTsJCTxnIGlkPSJzaGFwZTM3OTItMjkiIHRyYW5zZm9ybT0idHJhbnNsYXRlKDIxLjg2NCwtMjEuODkxKSI+JiN4YTsJCQk8dGl0bGUgaWQ9InRpdGxlMTAzNDYxIj5TaGVldC4zNzkyPC90aXRsZT4mI3hhOwkJCTxwYXRoIGlkPSJwYXRoMTAzNDYzIiBpbmtzY2FwZTpjb25uZWN0b3ItY3VydmF0dXJlPSIwIiBzdHlsZT0iZmlsbDojMUUxRTFFO2ZpbGwtb3BhY2l0eTowLjI1OyIgZD0iTTUuMzQsMzMuMUwwLDMwLjczICAgICBsNS4zNC0yLjM3VjMzLjF6Ii8+JiN4YTsJCTwvZz4mI3hhOwkJPGcgaWQ9InNoYXBlMzc5My0zMSIgdHJhbnNmb3JtPSJ0cmFuc2xhdGUoMTMuODk2NywtMjUuNjE1NSkiPiYjeGE7CQkJPHRpdGxlIGlkPSJ0aXRsZTEwMzQ2NiI+U2hlZXQuMzc5MzwvdGl0bGU+JiN4YTsJCQk8cGF0aCBpZD0icGF0aDEwMzQ2OCIgaW5rc2NhcGU6Y29ubmVjdG9yLWN1cnZhdHVyZT0iMCIgc3R5bGU9ImZpbGw6I0ZGRkZGRjsiIGQ9Ik0zLjQ4LDMxLjU1TDAsMzEuMjRsMy4wOS0wLjc4bC0wLjQtMS41NyAgICAgbDIuNjIsMS4wN2wzLjI0LTAuNjZsLTEuNDgsMS40NGwyLjQxLDEuMTdsLTMuNTQtMC4xOEw0LjE5LDMzLjFMMy40OCwzMS41NXoiLz4mI3hhOwkJPC9nPiYjeGE7CTwvZz4mI3hhOzwvZz4mI3hhOzwvc3ZnPg==;shadow=0;fillColor=#A9C4EB;" vertex="1" parent="1">
          <mxGeometry x="580" y="500" width="76.6" height="64.5" as="geometry" />
        </mxCell>
        <mxCell id="_n596mMIc1q4cGWHqEME-33" value="" style="edgeStyle=orthogonalEdgeStyle;rounded=0;orthogonalLoop=1;jettySize=auto;html=1;startArrow=none;startFill=0;endArrow=classic;endFill=1;" edge="1" parent="1" source="_n596mMIc1q4cGWHqEME-26">
          <mxGeometry relative="1" as="geometry">
            <mxPoint x="523" y="710" as="targetPoint" />
            <Array as="points">
              <mxPoint x="523" y="710" />
            </Array>
          </mxGeometry>
        </mxCell>
        <mxCell id="_n596mMIc1q4cGWHqEME-43" value="" style="edgeStyle=orthogonalEdgeStyle;curved=1;orthogonalLoop=1;jettySize=auto;html=1;startArrow=classic;startFill=1;endArrow=classic;endFill=1;strokeColor=#000000;entryX=0.25;entryY=1;entryDx=0;entryDy=0;dashed=1;dashPattern=1 1;" edge="1" parent="1" source="_n596mMIc1q4cGWHqEME-26" target="_n596mMIc1q4cGWHqEME-8">
          <mxGeometry relative="1" as="geometry" />
        </mxCell>
        <mxCell id="_n596mMIc1q4cGWHqEME-26" value="" style="shape=image;verticalLabelPosition=bottom;labelBackgroundColor=#ffffff;verticalAlign=top;aspect=fixed;imageAspect=0;image=data:image/svg+xml,PHN2ZyB4bWxuczpjYz0iaHR0cDovL2NyZWF0aXZlY29tbW9ucy5vcmcvbnMjIiB4bWxuczpkYz0iaHR0cDovL3B1cmwub3JnL2RjL2VsZW1lbnRzLzEuMS8iIHhtbG5zOmlua3NjYXBlPSJodHRwOi8vd3d3Lmlua3NjYXBlLm9yZy9uYW1lc3BhY2VzL2lua3NjYXBlIiB4bWxuczpyZGY9Imh0dHA6Ly93d3cudzMub3JnLzE5OTkvMDIvMjItcmRmLXN5bnRheC1ucyMiIHhtbG5zOnNvZGlwb2RpPSJodHRwOi8vc29kaXBvZGkuc291cmNlZm9yZ2UubmV0L0RURC9zb2RpcG9kaS0wLmR0ZCIgeG1sbnM6c3ZnPSJodHRwOi8vd3d3LnczLm9yZy8yMDAwL3N2ZyIgeG1sbnM9Imh0dHA6Ly93d3cudzMub3JnLzIwMDAvc3ZnIiB4bWxuczp4bGluaz0iaHR0cDovL3d3dy53My5vcmcvMTk5OS94bGluayIgdmVyc2lvbj0iMS4xIiBpZD0ic3ZnMzI3NDkiIGlua3NjYXBlOnZlcnNpb249IjAuOTIuMyAoMjQwNTU0NiwgMjAxOC0wMy0xMSkiIHNvZGlwb2RpOmRvY25hbWU9InNtYXJ0cGhvbmVfMS5zdmciIHg9IjBweCIgeT0iMHB4IiB2aWV3Qm94PSIwIDAgMjguMzIgNTYuNjQiIHN0eWxlPSJlbmFibGUtYmFja2dyb3VuZDpuZXcgMCAwIDI4LjMyIDU2LjY0OyIgeG1sOnNwYWNlPSJwcmVzZXJ2ZSI+JiN4YTs8c29kaXBvZGk6bmFtZWR2aWV3IGJvcmRlcmNvbG9yPSIjNjY2NjY2IiBib3JkZXJvcGFjaXR5PSIxIiBmaXQtbWFyZ2luLWJvdHRvbT0iMCIgZml0LW1hcmdpbi1sZWZ0PSIwIiBmaXQtbWFyZ2luLXJpZ2h0PSIwIiBmaXQtbWFyZ2luLXRvcD0iMCIgZ3JpZHRvbGVyYW5jZT0iMTAiIGd1aWRldG9sZXJhbmNlPSIxMCIgaWQ9Im5hbWVkdmlldzMyNzUxIiBpbmtzY2FwZTpjdXJyZW50LWxheWVyPSJzdmczMjc0OSIgaW5rc2NhcGU6Y3g9IjE4Ljg3OTg3OCIgaW5rc2NhcGU6Y3k9IjM3Ljc2MDIxMyIgaW5rc2NhcGU6cGFnZW9wYWNpdHk9IjAiIGlua3NjYXBlOnBhZ2VzaGFkb3c9IjIiIGlua3NjYXBlOndpbmRvdy1oZWlnaHQ9IjEwMTciIGlua3NjYXBlOndpbmRvdy1tYXhpbWl6ZWQ9IjEiIGlua3NjYXBlOndpbmRvdy13aWR0aD0iMTkyMCIgaW5rc2NhcGU6d2luZG93LXg9Ii04IiBpbmtzY2FwZTp3aW5kb3cteT0iLTgiIGlua3NjYXBlOnpvb209IjExLjE4NDI2NiIgb2JqZWN0dG9sZXJhbmNlPSIxMCIgcGFnZWNvbG9yPSIjZmZmZmZmIiBzaG93Z3JpZD0iZmFsc2UiPiYjeGE7CTwvc29kaXBvZGk6bmFtZWR2aWV3PiYjeGE7PGcgaWQ9ImczMjc0NyIgdHJhbnNmb3JtPSJ0cmFuc2xhdGUoLTAuNzQ5OTk1ODgsLTAuNzQ5OTk2MjcpIj4mI3hhOwk8dGl0bGUgaWQ9InRpdGxlMzI2NjciPlBhZ2UtMTwvdGl0bGU+JiN4YTsJPGcgaWQ9Imdyb3VwMzM5My0xIiB0cmFuc2Zvcm09InRyYW5zbGF0ZSgwLjc1LC0wLjc1KSI+JiN4YTsJCTx0aXRsZSBpZD0idGl0bGUzMjY2OSI+U21hcnRwaG9uZSAjMTwvdGl0bGU+JiN4YTsJCTxnIGlkPSJzaGFwZTMzOTQtMiI+JiN4YTsJCQk8dGl0bGUgaWQ9InRpdGxlMzI2NzEiPnBhdGgyNTk5MjwvdGl0bGU+JiN4YTsJCQk8cGF0aCBpZD0icGF0aDMyNjczIiBpbmtzY2FwZTpjb25uZWN0b3ItY3VydmF0dXJlPSIwIiBzdHlsZT0iZmlsbDojMkUyRTJFOyIgZD0iTTI2LjY2LDU4LjE0aC0yNUMwLjc1LDU4LjE0LDAsNTcuNCwwLDU2LjQ5ICAgICBjMCwwLDAsMCwwLTAuMDFWMy4xNkMwLDIuMjUsMC43NCwxLjUsMS42NSwxLjVjMCwwLDAsMCwwLjAxLDBoMjVjMC45MSwwLDEuNjYsMC43NCwxLjY2LDEuNjVjMCwwLDAsMCwwLDAuMDF2NTMuMzIgICAgIEMyOC4zMiw1Ny4zOSwyNy41OCw1OC4xNCwyNi42Niw1OC4xNEMyNi42Niw1OC4xNCwyNi42Niw1OC4xNCwyNi42Niw1OC4xNHoiLz4mI3hhOwkJPC9nPiYjeGE7CQk8ZyBpZD0ic2hhcGUzMzk1LTQiPiYjeGE7CQkJPHRpdGxlIGlkPSJ0aXRsZTMyNjc2Ij5wYXRoMjU5OTQ8L3RpdGxlPiYjeGE7CQkJPHBhdGggaWQ9InBhdGgzMjY3OCIgaW5rc2NhcGU6Y29ubmVjdG9yLWN1cnZhdHVyZT0iMCIgc3R5bGU9ImZpbGw6IzJFMkUyRTsiIGQ9Ik0wLDUwLjV2Ni4yOGMwLDAuNzUsMC42LDEuMzYsMS4zNSwxLjM2ICAgICBjMCwwLDAsMCwwLjAxLDBoMjUuNmMwLjc1LDAsMS4zNi0wLjYsMS4zNi0xLjM1YzAsMCwwLDAsMC0wLjAxVjUwLjVIMHoiLz4mI3hhOwkJPC9nPiYjeGE7CQk8ZyBpZD0ic2hhcGUzMzk2LTYiIHRyYW5zZm9ybT0idHJhbnNsYXRlKDEuNzk4MDksLTcuNjQxODYpIj4mI3hhOwkJCTx0aXRsZSBpZD0idGl0bGUzMjY4MSI+cGF0aDI1OTk2PC90aXRsZT4mI3hhOwkJCTxyZWN0IGlkPSJyZWN0MzI2ODMiIHg9IjAiIHk9IjE2Ljc4IiBzdHlsZT0iZmlsbDojMTA2RUJFOyIgd2lkdGg9IjI0LjI3IiBoZWlnaHQ9IjQxLjM2Ii8+JiN4YTsJCTwvZz4mI3hhOwkJPGcgaWQ9InNoYXBlMzM5Ny04IiB0cmFuc2Zvcm09InRyYW5zbGF0ZSg0LjUyNTMzLC0zLjc3NzMzKSI+JiN4YTsJCQk8dGl0bGUgaWQ9InRpdGxlMzI2ODYiPmNpcmNsZTI1OTk4PC90aXRsZT4mI3hhOwkJCTxjaXJjbGUgaWQ9ImVsbGlwc2UzMjY4OCIgc3R5bGU9ImZpbGw6I0FDQUNBQzsiIGN4PSIwLjc4IiBjeT0iNTcuMzYiIHI9IjAuNzgiLz4mI3hhOwkJPC9nPiYjeGE7CQk8ZyBpZD0ic2hhcGUzMzk4LTEwIiB0cmFuc2Zvcm09InRyYW5zbGF0ZSgyMS43MzcxLC0zLjc3NzMzKSI+JiN4YTsJCQk8dGl0bGUgaWQ9InRpdGxlMzI2OTEiPmNpcmNsZTI2MDAwPC90aXRsZT4mI3hhOwkJCTxjaXJjbGUgaWQ9ImVsbGlwc2UzMjY5MyIgc3R5bGU9ImZpbGw6I0FDQUNBQzsiIGN4PSIwLjc4IiBjeT0iNTcuMzYiIHI9IjAuNzgiLz4mI3hhOwkJPC9nPiYjeGE7CQk8ZyBpZD0ic2hhcGUzMzk5LTEyIiB0cmFuc2Zvcm09InRyYW5zbGF0ZSgxMy4wMzYxLC0zLjgwMzQpIj4mI3hhOwkJCTx0aXRsZSBpZD0idGl0bGUzMjY5NiI+cGF0aDI2MDAyPC90aXRsZT4mI3hhOwkJCTxwYXRoIGlkPSJwYXRoMzI2OTgiIGlua3NjYXBlOmNvbm5lY3Rvci1jdXJ2YXR1cmU9IjAiIHN0eWxlPSJmaWxsOiNBQ0FDQUM7IiBkPSJNMS4zNSw1OC4xNEwwLDU3Ljk1di0xLjI0bDEuMzUtMC4xNVY1OC4xNHoiLz4mI3hhOwkJPC9nPiYjeGE7CQk8ZyBpZD0ic2hhcGUzNDAwLTE0IiB0cmFuc2Zvcm09InRyYW5zbGF0ZSg0LjM0MDEzLC0yOS4xMDAyKSI+JiN4YTsJCQk8dGl0bGUgaWQ9InRpdGxlMzI3MDEiPnBhdGgyNjAwNDwvdGl0bGU+JiN4YTsJCQk8cGF0aCBpZD0icGF0aDMyNzAzIiBpbmtzY2FwZTpjb25uZWN0b3ItY3VydmF0dXJlPSIwIiBzdHlsZT0iZmlsbDojMjQ4OEQ4OyIgZD0iTTIxLjczLDU4LjE0di0xOS45SDBMMjEuNzMsNTguMTR6Ii8+JiN4YTsJCTwvZz4mI3hhOwkJPGcgaWQ9InNoYXBlMzQwMS0xNiIgdHJhbnNmb3JtPSJ0cmFuc2xhdGUoMTAuMjc5NywtNTMuMDM1KSI+JiN4YTsJCQk8dGl0bGUgaWQ9InRpdGxlMzI3MDYiPnBhdGgyNjAwNjwvdGl0bGU+JiN4YTsJCQkmI3hhOwkJCQk8cGF0aCBpZD0icGF0aDMyNzA4IiBpbmtzY2FwZTpjb25uZWN0b3ItY3VydmF0dXJlPSIwIiBzdHlsZT0iZmlsbDpub25lO3N0cm9rZTojNzU3NTc1O3N0cm9rZS13aWR0aDowLjQ3MjU7c3Ryb2tlLW1pdGVybGltaXQ6MzsiIGQ9IiAgICAgTTcuNjksNTcuOTFIMC43N0MwLjM0LDU4LjE0LDAsNTcuOCwwLDU3LjM3YzAuMDEtMC40MywwLjM0LTAuNzgsMC43Ny0wLjgxbDYuOTIsMGMwLjQzLDAuMDQsMC43NiwwLjM5LDAuNzcsMC44MSAgICAgQzguNDYsNTcuOCw4LjEyLDU4LjE0LDcuNjksNTcuOTF6Ii8+JiN4YTsJCTwvZz4mI3hhOwkJPGcgaWQ9InNoYXBlMzQwMi0xOCIgdHJhbnNmb3JtPSJ0cmFuc2xhdGUoMy4xNDY2NSwtMTcuMDgxOCkiPiYjeGE7CQkJPHRpdGxlIGlkPSJ0aXRsZTMyNzExIj5wYXRoMjYwMDg8L3RpdGxlPiYjeGE7CQkJPHBhdGggaWQ9InBhdGgzMjcxMyIgaW5rc2NhcGU6Y29ubmVjdG9yLWN1cnZhdHVyZT0iMCIgc3R5bGU9ImZpbGw6I0ZGRkZGRjsiIGQ9Ik0wLDQ3LjhoMjIuMDN2NC41SDBWNDcuOHogTTAsNTMuNjRoMjIuMDN2NC41SDAgICAgIFY1My42NHoiLz4mI3hhOwkJPC9nPiYjeGE7CQk8ZyBpZD0ic2hhcGUzNDAzLTIwIiB0cmFuc2Zvcm09InRyYW5zbGF0ZSgzLjE0NjY1LC0xMC43ODg1KSI+JiN4YTsJCQk8dGl0bGUgaWQ9InRpdGxlMzI3MTYiPnBhdGgyNjAxMDwvdGl0bGU+JiN4YTsJCQk8cmVjdCBpZD0icmVjdDMyNzE4IiB4PSIwIiB5PSI1My4xOSIgc3R5bGU9ImZpbGw6IzAwQjI5NDsiIHdpZHRoPSIyMi4wMyIgaGVpZ2h0PSI0Ljk0Ii8+JiN4YTsJCTwvZz4mI3hhOwkJPGcgaWQ9InNoYXBlMzQwNC0yMiIgdHJhbnNmb3JtPSJ0cmFuc2xhdGUoNC4yMTI5MSwtMzEuNjU0OCkiPiYjeGE7CQkJPHRpdGxlIGlkPSJ0aXRsZTMyNzIxIj5jaXJjbGUyNjAxMjwvdGl0bGU+JiN4YTsJCQk8Y2lyY2xlIGlkPSJlbGxpcHNlMzI3MjMiIHN0eWxlPSJmaWxsOiMwMEIyOTQ7IiBjeD0iMS4yNiIgY3k9IjU2Ljg4IiByPSIxLjI2Ii8+JiN4YTsJCTwvZz4mI3hhOwkJPGcgaWQ9InNoYXBlMzQwNS0yNCIgdHJhbnNmb3JtPSJ0cmFuc2xhdGUoMTMuMDcwNywtMzEuNjU0OCkiPiYjeGE7CQkJPHRpdGxlIGlkPSJ0aXRsZTMyNzI2Ij5jaXJjbGUyNjAxNDwvdGl0bGU+JiN4YTsJCQk8Y2lyY2xlIGlkPSJlbGxpcHNlMzI3MjgiIHN0eWxlPSJmaWxsOiNBNkE2QTY7IiBjeD0iMS4yNiIgY3k9IjU2Ljg4IiByPSIxLjI2Ii8+JiN4YTsJCTwvZz4mI3hhOwkJPGcgaWQ9InNoYXBlMzQwNi0yNiIgdHJhbnNmb3JtPSJ0cmFuc2xhdGUoNS44NDM3OCwtNDAuMDA3NCkiPiYjeGE7CQkJPHRpdGxlIGlkPSJ0aXRsZTMyNzMxIj5wYXRoMjYwMTY8L3RpdGxlPiYjeGE7CQkJPHJlY3QgaWQ9InJlY3QzMjczMyIgeD0iMCIgeT0iNTcuMjQiIHN0eWxlPSJmaWxsOiM2OUFGRTU7IiB3aWR0aD0iMTYuNjMiIGhlaWdodD0iMC45Ii8+JiN4YTsJCTwvZz4mI3hhOwkJPGcgaWQ9InNoYXBlMzQwNy0yOCIgdHJhbnNmb3JtPSJ0cmFuc2xhdGUoMjEuNTU5NSwtMzEuNjU0OCkiPiYjeGE7CQkJPHRpdGxlIGlkPSJ0aXRsZTMyNzM2Ij5jaXJjbGUyNjAxODwvdGl0bGU+JiN4YTsJCQk8Y2lyY2xlIGlkPSJlbGxpcHNlMzI3MzgiIHN0eWxlPSJmaWxsOiNBNkE2QTY7IiBjeD0iMS4yNiIgY3k9IjU2Ljg4IiByPSIxLjI2Ii8+JiN4YTsJCTwvZz4mI3hhOwkJPGcgaWQ9InNoYXBlMzQwOC0zMCIgdHJhbnNmb3JtPSJ0cmFuc2xhdGUoMS43OTgwOSwtNDIuNzA0NSkiPiYjeGE7CQkJPHRpdGxlIGlkPSJ0aXRsZTMyNzQxIj5wYXRoMjYwMjA8L3RpdGxlPiYjeGE7CQkJPHJlY3QgaWQ9InJlY3QzMjc0MyIgeD0iMCIgeT0iNTEuODUiIHN0eWxlPSJmaWxsOiNGRkE5NDA7IiB3aWR0aD0iMjQuMjciIGhlaWdodD0iNi4yOSIvPiYjeGE7CQk8L2c+JiN4YTsJPC9nPiYjeGE7PC9nPiYjeGE7PC9zdmc+;" vertex="1" parent="1">
          <mxGeometry x="210" y="634.47" width="50" height="101.78" as="geometry" />
        </mxCell>
        <mxCell id="_n596mMIc1q4cGWHqEME-34" value="HTTP" style="text;html=1;resizable=0;autosize=1;align=center;verticalAlign=middle;points=[];fillColor=none;strokeColor=none;rounded=0;shadow=0;fontSize=18;" vertex="1" parent="1">
          <mxGeometry x="360" y="705" width="60" height="30" as="geometry" />
        </mxCell>
        <mxCell id="_n596mMIc1q4cGWHqEME-36" value="gRPC" style="text;html=1;resizable=0;autosize=1;align=center;verticalAlign=middle;points=[];fillColor=none;strokeColor=none;rounded=0;shadow=0;fontSize=18;" vertex="1" parent="1">
          <mxGeometry x="355" y="355" width="60" height="30" as="geometry" />
        </mxCell>
        <mxCell id="_n596mMIc1q4cGWHqEME-40" value="" style="edgeStyle=orthogonalEdgeStyle;rounded=0;orthogonalLoop=1;jettySize=auto;html=1;startArrow=classic;startFill=1;endArrow=classic;endFill=1;entryX=1;entryY=0.5;entryDx=0;entryDy=0;exitX=0.5;exitY=1;exitDx=0;exitDy=0;" edge="1" parent="1" source="_n596mMIc1q4cGWHqEME-16" target="_n596mMIc1q4cGWHqEME-58">
          <mxGeometry relative="1" as="geometry">
            <mxPoint x="799.75" y="500" as="sourcePoint" />
            <mxPoint x="694.0000000000002" y="680.5399999999997" as="targetPoint" />
          </mxGeometry>
        </mxCell>
        <mxCell id="_n596mMIc1q4cGWHqEME-49" value="subscribe&lt;br style=&quot;font-size: 18px;&quot;&gt;(websocket)" style="text;html=1;resizable=0;autosize=1;align=center;verticalAlign=middle;points=[];fillColor=none;strokeColor=none;rounded=0;shadow=0;fontSize=18;" vertex="1" parent="1">
          <mxGeometry x="270" y="480" width="110" height="50" as="geometry" />
        </mxCell>
        <mxCell id="_n596mMIc1q4cGWHqEME-50" value="publish&lt;br style=&quot;font-size: 18px;&quot;&gt;(HTTP)" style="text;html=1;resizable=0;autosize=1;align=center;verticalAlign=middle;points=[];fillColor=none;strokeColor=none;rounded=0;shadow=0;fontSize=18;" vertex="1" parent="1">
          <mxGeometry x="260" y="570" width="70" height="50" as="geometry" />
        </mxCell>
        <mxCell id="_n596mMIc1q4cGWHqEME-54" value="subscribe&lt;br style=&quot;font-size: 18px;&quot;&gt;(websocket)" style="text;html=1;resizable=0;autosize=1;align=center;verticalAlign=middle;points=[];fillColor=none;strokeColor=none;rounded=0;shadow=0;fontSize=18;" vertex="1" parent="1">
          <mxGeometry x="350" y="410" width="110" height="50" as="geometry" />
        </mxCell>
        <mxCell id="_n596mMIc1q4cGWHqEME-55" value="subscribe&lt;br style=&quot;font-size: 18px;&quot;&gt;(websocket)" style="text;html=1;resizable=0;autosize=1;align=center;verticalAlign=middle;points=[];fillColor=none;strokeColor=none;rounded=0;shadow=0;fontSize=18;" vertex="1" parent="1">
          <mxGeometry x="345" y="610" width="110" height="50" as="geometry" />
        </mxCell>
        <mxCell id="_n596mMIc1q4cGWHqEME-56" value="" style="image;html=1;image=img/lib/clip_art/computers/Server_Tower_128x128.png;shadow=0;fillColor=#BEE4F0;" vertex="1" parent="1">
          <mxGeometry x="531.6" y="350" width="125" height="93" as="geometry" />
        </mxCell>
        <mxCell id="_n596mMIc1q4cGWHqEME-58" value="" style="image;html=1;image=img/lib/clip_art/computers/Server_Tower_128x128.png;shadow=0;fillColor=#BEE4F0;" vertex="1" parent="1">
          <mxGeometry x="547.9499999999999" y="660" width="97.09" height="91.47" as="geometry" />
        </mxCell>
      </root>
    </mxGraphModel>
  </diagram>
</mxfile>
